/* XPM */
static char *_fe289a0445648d2e9164d90568d01ffNry9ZpLDLPhD6rlh[] = {
/* columns rows colors chars-per-pixel */
"60 60 157 2 ",
"   c None",
".  c #010101",
"X  c #090705",
"o  c #0A0807",
"O  c #0D0A09",
"+  c #110E0C",
"@  c #15110E",
"#  c #19130E",
"$  c #171311",
"%  c #1B1512",
"&  c #1E1815",
"*  c #17161C",
"=  c #19171E",
"-  c #231B16",
";  c #291E17",
":  c #221C18",
">  c #291F19",
",  c #27201C",
"<  c #2C231E",
"1  c #30251E",
"2  c #2C2420",
"3  c #322720",
"4  c #342A24",
"5  c #3B2B21",
"6  c #392F29",
"7  c #3C312A",
"8  c #292631",
"9  c #2D2A36",
"0  c #412F25",
"q  c #463227",
"w  c #43342C",
"e  c #49382F",
"r  c #4C3D34",
"t  c #4F4139",
"y  c #564337",
"u  c #5E4435",
"i  c #53443B",
"p  c #5C473B",
"a  c #5A483E",
"s  c #644A3B",
"d  c #6D4F3D",
"f  c #403C4D",
"g  c #5C4C42",
"h  c #444052",
"j  c #604F45",
"k  c #615046",
"l  c #695143",
"z  c #665449",
"x  c #6A574C",
"c  c #6D5A4E",
"v  c #795744",
"b  c #7A5945",
"n  c #715749",
"m  c #745A4B",
"M  c #795E4E",
"N  c #6F5B50",
"B  c #735F53",
"V  c #766155",
"C  c #796357",
"Z  c #7F695B",
"A  c #825E49",
"S  c #846654",
"D  c #876857",
"F  c #816A5C",
"G  c #8E6E5B",
"H  c #906F5C",
"J  c #A3765C",
"K  c #A7795D",
"L  c #876F61",
"P  c #886F61",
"I  c #8A7163",
"U  c #967460",
"Y  c #997662",
"T  c #9C7864",
"R  c #917768",
"E  c #94796A",
"W  c #997D6E",
"Q  c #A17C67",
"!  c #A37E69",
"~  c #9F8372",
"^  c #A7816B",
"/  c #A9826C",
"(  c #A38675",
")  c #A78978",
"_  c #AC8D7C",
"`  c #B28972",
"'  c #AF907E",
"]  c #BA9077",
"[  c #B0917E",
"{  c #BE927A",
"}  c #C79070",
"|  c #CE9574",
" . c #C3977D",
".. c #C5987E",
"X. c #D39976",
"o. c #D69B78",
"O. c #D99E7B",
"+. c #E3A47F",
"@. c #B59582",
"#. c #B89784",
"$. c #BA9986",
"%. c #BE9C88",
"&. c #CA9C82",
"*. c #C29F8B",
"=. c #CFA085",
"-. c #C5A28D",
";. c #D1A186",
":. c #D5A489",
">. c #D8A68A",
",. c #DDAA8E",
"<. c #CBA691",
"1. c #CEA994",
"2. c #D2AC97",
"3. c #D9AC92",
"4. c #D5AF99",
"5. c #DEB096",
"6. c #D6B09A",
"7. c #DBB49D",
"8. c #E4A580",
"9. c #E9A983",
"0. c #EAAE8B",
"q. c #EBB08E",
"w. c #E1AE90",
"e. c #E6B193",
"r. c #ECB494",
"t. c #EDB798",
"y. c #EEB99A",
"u. c #F1BA9A",
"i. c #DFB7A0",
"p. c #E4BBA3",
"a. c #E5BCA4",
"s. c #E6BDA5",
"d. c #E7BDA6",
"f. c #E7BEA6",
"g. c #E3BBA3",
"h. c #E9BFA7",
"j. c #ECBEA4",
"k. c #EAC0A8",
"l. c #EDC3AA",
"z. c #EEC3AB",
"x. c #EFC5AC",
"c. c #EDC3AA",
"v. c #F0C2A6",
"b. c #F0C5AC",
"n. c #F1C6AD",
"m. c #F2C6AD",
"M. c #F2C7AD",
"N. c #F2C7AE",
"B. c #F3C7AE",
"V. c #F1C6AD",
"C. c #F3C8AE",
"Z. c #F3C8AF",
"A. c #F4C8AF",
"S. c #F4C9AF",
"D. c #F4C8AF",
"F. c #F5C9B0",
"G. c #F5C9B0",
/* pixels */
"                                                        . . . .                                                         ",
"                      .                           . . . O & & O . . .                           .                       ",
"              . . . . . . . . .         . . . . . . 4 I %.4.4.%.L 4 . . . . . .         . . . . . . . . .               ",
"            . . 3 n T ^ U l ; . .   . . . & 6 w 4 B 7.F.A.C.C.A.F.7.B 4 w 6 & . . .   . . ; l Y ^ T n 3 . .             ",
"          . @ D ,.u.u.u.u.r.| d o . . 6 W 2.d.k.d.x.n.n.n.n.n.n.n.n.x.d.k.d.2.W 6 . . o d | r.u.u.u.u.,.D @ .           ",
"        . + Q y.y.t.t.t.r.9.9.X.; . z 7.F.C.n.n.n.n.n.n.n.n.n.n.n.n.n.n.n.n.C.F.7.z . ; X.9.9.r.t.t.t.y.y.Q + .         ",
"        . n y.t.t.t.r.q.9.9.9.b . g d.C.n.n.n.n.n.n.n.n.n.n.n.n.n.n.n.n.n.n.n.n.C.d.g . b 9.9.9.q.r.t.t.t.y.n .         ",
"      . @  .u.t.t.r.0.9.9.8.K # : 2.A.n.n.n.n.n.n.n.n.n.n.n.n.n.n.n.n.n.n.n.n.n.n.A.2.: # K 8.9.9.0.r.t.t.u. .@ .       ",
"      . 3 w.y.t.t.0.9.9.| u X . F n.n.n.n.n.n.n.n.n.n.n.n.n.n.n.n.n.n.n.n.n.n.n.n.n.n.Z . X u | 9.9.0.t.t.y.w.3 .       ",
"      . p t.t.t.r.9.9.} 5 . 7 ( d.n.n.n.n.n.n.n.n.n.n.n.n.n.n.n.n.n.n.n.n.n.n.n.n.n.n.d.( 7 . 5 } 9.9.r.t.t.t.p .       ",
"    . . Y u.t.r.9.9.O.q . z i.F.n.n.n.n.n.n.n.n.n.n.n.n.n.n.n.n.n.n.n.n.n.n.n.n.n.n.n.n.F.i.z . q O.9.9.r.t.u.Y . .     ",
"    . 3 >.y.t.r.9.9.A . a d.C.n.n.n.n.n.n.n.n.n.n.n.n.n.n.n.n.n.n.n.n.n.n.n.n.n.n.n.n.n.n.C.d.a . A 9.9.r.t.y.>.3 .     ",
"  . O ! u.t.t.0.9.X.; % <.A.n.n.n.n.n.n.n.n.n.n.n.n.n.n.n.n.n.n.n.n.n.n.n.n.n.n.n.n.n.n.n.n.A.<.% ; X.9.0.t.t.u.! O .   ",
". . M t.t.t.r.9.9.J . z n.n.n.n.n.n.n.n.n.n.n.n.n.n.n.n.n.n.n.n.n.n.n.n.n.n.n.n.n.n.n.n.n.n.n.n.z . J 9.9.r.t.t.t.M . . ",
". < ,.y.t.t.r.9.9.v . ~ F.n.n.n.n.n.n.n.n.n.n.n.n.n.n.n.n.n.n.n.n.n.n.n.n.n.n.n.n.n.n.n.n.n.n.F.~ . b 9.9.r.t.t.y.,.< . ",
". 3 w.y.t.t.r.9.9.s X #.A.n.n.n.n.n.n.C.n.n.n.n.n.n.n.n.n.n.n.n.n.n.n.n.n.n.n.n.C.n.n.n.n.n.n.A.#.X s 9.9.r.t.t.y.w.3 . ",
". X M ,.u.u.r.9.9.s X @.F.n.n.n.n.n.l.<.d.n.n.n.n.n.n.n.n.n.n.n.n.n.n.n.n.n.n.p.<.l.n.n.n.n.n.F.@.X s 9.9.r.u.u.,.M X . ",
"  . . 3 S { O.+.o.5 X @.A.n.n.n.n.A.%.% I A.n.n.n.n.F.F.F.F.F.F.F.F.n.n.n.n.A.I & *.A.n.n.n.n.A.@.X 5 o.+.O.{ S 3 . .   ",
"    . . . + > 0 5 . g h.n.n.n.n.n.F._ . V A.n.A.n.4.[ W E E E E W [ 4.n.A.n.A.N . [ F.n.n.n.n.n.h.g . 5 0 > + . . .     ",
"          . . . . $ -.A.n.n.n.n.n.F.' . C F.n.-.z : X . . . . . . X : z -.n.A.B . @.F.n.n.n.n.n.A.-.$ . . . .           ",
"                . i l.n.n.n.n.n.n.n.7.Z -.n.E % . O . = 8 8 8 8 = . O . % E n.*.F i.n.n.n.n.n.n.n.l.i .                 ",
"                . F F.n.n.n.n.n.n.n.n.A.C.R o # G U . * f h h f * . U H $ o R C.A.n.n.n.n.n.n.n.n.F.F .                 ",
"                . E F.n.n.n.n.n.n.n.n.A.$.@ % ` u.w.e . * 9 9 * . e w.u.` % @ $.A.n.n.n.n.n.n.n.n.F.E .                 ",
"                . L F.n.n.n.n.n.n.n.n.k.i . U u.t.y.&.e . . . . e &.y.t.u.Y . t k.n.n.n.n.n.n.n.n.F.L .                 ",
"                . g n.n.n.n.n.n.n.n.A.-.+ 7 w.y.t.u.u.w.! M M ! w.u.u.t.y.e.w O *.A.n.n.n.n.n.n.n.n.g .                 ",
"                . : 2.C.n.n.n.n.n.n.F.E . S u.y.w.H { u.u./ ^ y.u. .G w.y.u.S . R F.n.n.n.n.n.n.C.2.: .                 ",
"                  . B x.n.n.n.n.n.n.A.B . / u.u. .O y y.,., : >.u.p o { u.u./ . B A.n.n.n.n.n.n.x.B .                   ",
"                  . + %.A.n.n.n.n.n.A.c . ` u.y.>.< O m p . . p M + , >.y.u.` . c A.n.n.n.n.n.A.%.+ .                   ",
"                  . X [ F.n.n.n.n.n.F.F . Y u.t.y.! & . . 3 3 . . % Q y.t.u.Y . F F.n.n.n.n.n.F.[ X .                   ",
"                  . o $.A.n.n.n.n.n.F._ . s t.t.t.t.&.Y Q >.>.! U &.t.t.t.t.s . _ F.n.n.n.n.n.A.$.o .                   ",
"                  . . ) F.n.n.n.n.n.n.7.< $ ..u.t.t.y.u.u.y.y.u.u.y.t.t.u. .$ 2 7.n.n.n.n.n.n.F.) . .                   ",
"                    . B C.n.n.n.n.n.n.C.I . r ,.u.t.t.t.t.t.t.t.t.t.t.u.,.r . I C.n.n.n.n.n.n.C.B .                     ",
"                    . < 6.C.n.n.n.n.n.n.g.t . y ;.u.u.y.y.y.y.y.t.u.u.;.y . i p.n.n.n.n.n.n.C.6.< .                     ",
"                    . . B x.n.n.n.n.n.n.C.4.r . > S { :.>.>.>.>.:.{ S > . r 4.C.n.n.n.n.n.n.x.B . .                     ",
"                      . o I l.A.n.n.n.n.n.C.7.V % . o % : : : : % o . % V i.C.n.n.n.n.n.A.l.I o .                       ",
"                        . X j -.z.n.n.n.n.n.n.n.<.L i 7 6 6 6 6 7 i P <.n.n.n.n.n.n.n.z.-.j X .                         ",
"                          . . $ W A.n.n.n.n.n.n.C.A.x.h.d.d.d.d.h.x.A.C.n.n.n.n.n.n.A.W $ . .                           ",
"                              . 3 7.n.n.n.n.n.n.n.n.n.n.n.n.n.n.n.n.n.n.n.n.n.n.n.n.7.3 .                               ",
"                              . . V n.n.n.n.n.n.n.n.n.n.n.n.n.n.n.n.n.n.n.n.n.n.n.n.V . .                               ",
"                                . o L k.A.n.n.n.n.n.n.n.n.n.n.n.n.n.n.n.n.n.n.A.k.L o .                                 ",
"                              . . + . a $.d.n.n.n.C.n.n.n.n.n.n.n.n.C.n.n.n.d.$.a . + . .                               ",
"                              . w ` w . O 6 g z g W k.F.n.n.n.n.F.k.W g z g 6 O . w ` w .                               ",
"                            . . Y u.,.U w $ X X . X i _ 7.h.h.7._ i X . X X % w U ,.u.Y . .                             ",
"                            . < 3.y.y.u.e.=.] ` / w . X : 7 7 : X . w / ` ] =.e.u.y.y.5.k                               ",
"                            . z n.v.y.y.t.y.u.u.u.w.! p 1 % % 1 p ! w.u.u.u.y.t.y.y.v.n.x.                              ",
"                            . W F.n.n.v.j.y.y.y.y.t.u.t.,.>.>.,.t.u.t.y.y.y.y.j.v.n.n.n.g.g                             ",
"                          . O %.A.n.n.n.n.n.n.n.v.y.y.t.t.y.y.t.t.y.y.v.n.n.n.n.n.n.n.A.-.O .                           ",
"                          . $ 1.C.n.n.n.n.n.n.n.n.n.v.v.j.j.j.j.v.v.n.n.n.n.n.n.n.n.n.C.1.$ .                           ",
"                          . & 6.n.n.n.n.n.n.A.n.n.n.n.n.n.A.A.n.n.n.n.n.n.A.n.n.n.n.n.C.2.% .                           ",
"                            I l.n.n.n.n.n.1._ k.n.n.n.n.n.$.$.n.n.n.n.n.k._ 1.n.n.n.n.C.1.$ .                           ",
"                            C.n.n.n.n.n.n.x + -.A.n.n.n.d.6 6 d.n.n.n.A.-.+ x n.n.n.n.A.$.o .                           ",
"                            7 @.C.n.n.n.n.k X $.A.n.n.n.g.< < g.n.n.n.A.$.X k n.n.n.n.F.R .                             ",
"                            . i l.n.n.n.A.B . _ F.n.n.n.g.2 2 g.n.n.n.F._ . B A.n.n.n.l.i .                             ",
"                            . $ -.A.n.n.F.E . I F.n.n.n.g.2 2 g.n.n.n.F.P . E F.n.n.A.-.$ .                             ",
"                              . x n.n.n.A.%.o i z.n.n.n.g.2 2 g.n.n.n.z.i o %.A.n.n.n.x .                               ",
"                              . + [ F.n.n.g.4 % 1.C.n.n.g.2 2 g.n.n.C.1.% 4 g.n.n.F.[ + .                               ",
"                                . , @.n.F.F.F . C C.n.A.g.2 2 g.A.n.C.C . F F.F.n.@., .                                 ",
"                                  . @ c @.4.$.% % [ 7.6.<., , <.6.7.[ % % $.4.@.c @ .                                   ",
"                                    . . o % : o . @ : : & X X & : : @ . o : % o . .                                     ",
"                                        . . . . . . . . . . . . . . . . . . . .                                         "
};
