/* XPM */
static char *b603f03d6cf94572abd4ce73c55b057ag91ApQhHOQgBhs7U[] = {
/* columns rows colors chars-per-pixel */
"60 60 172 2 ",
"   c None",
".  c #000000",
"X  c #090501",
"o  c #0D0905",
"O  c #06090A",
"+  c #0A0C0C",
"@  c #050708",
"#  c #120B05",
"$  c #100E0D",
"%  c #13100F",
"&  c #0B0F10",
"*  c #0D1314",
"=  c #0F1618",
"-  c #151211",
";  c #1A1514",
":  c #131B1D",
">  c #1B1816",
",  c #210F08",
"<  c #22130A",
"1  c #2C1B0F",
"2  c #24180C",
"3  c #221D1B",
"4  c #201917",
"5  c #301F10",
"6  c #331B0E",
"7  c #29211F",
"8  c #27201D",
"9  c #332212",
"0  c #162023",
"q  c #182225",
"w  c #1D272A",
"e  c #1D292D",
"r  c #1F2E31",
"t  c #2B2422",
"y  c #202C2F",
"u  c #2B2623",
"i  c #342A27",
"p  c #342D2A",
"a  c #382D2A",
"s  c #37302C",
"d  c #3A312E",
"f  c #243236",
"g  c #26353A",
"h  c #29383C",
"j  c #3E3532",
"k  c #462816",
"l  c #572C18",
"z  c #54381E",
"x  c #612F19",
"c  c #413532",
"v  c #433935",
"b  c #493B37",
"n  c #493E3A",
"m  c #463D39",
"M  c #49403B",
"N  c #52423D",
"B  c #694023",
"V  c #624123",
"C  c #754E2A",
"Z  c #7D532D",
"A  c #2C3D42",
"S  c #2D4045",
"D  c #2D4348",
"F  c #32454A",
"G  c #35494F",
"H  c #354E54",
"J  c #3A5056",
"K  c #3C545A",
"L  c #375157",
"P  c #3E5960",
"I  c #544A44",
"U  c #5C4B45",
"Y  c #544641",
"T  c #5C514B",
"R  c #604E48",
"E  c #62564F",
"W  c #6D5B54",
"Q  c #6C5F58",
"!  c #685852",
"~  c #705C56",
"^  c #6E6059",
"/  c #79645D",
"(  c #435E66",
")  c #44626A",
"_  c #48636B",
"`  c #4A6A73",
"'  c #4C7079",
"]  c #54737C",
"[  c #776861",
"{  c #7F6F67",
"}  c #8A5C32",
"|  c #984B28",
" . c #946135",
".. c #9E6939",
"X. c #986537",
"o. c #A46E3C",
"O. c #AB723E",
"+. c #B76436",
"@. c #D96F3B",
"#. c #B37741",
"$. c #B77A42",
"%. c #856B64",
"&. c #84726A",
"*. c #8B726A",
"=. c #8B7A71",
"-. c #9C7E74",
";. c #DD7B43",
":. c #9C897F",
">. c #988278",
",. c #A4847B",
"<. c #A8887E",
"1. c #C68448",
"2. c #CF8A4B",
"3. c #D9914F",
"4. c #FB8A4A",
"5. c #EC924F",
"6. c #FE914F",
"7. c #EC9B55",
"8. c #E29652",
"9. c #FF9B54",
"0. c #F1A157",
"q. c #F2A158",
"w. c #FBA55A",
"e. c #FEAA5C",
"r. c #547B84",
"t. c #597B84",
"y. c #597F89",
"u. c #5F848E",
"i. c #5F8690",
"p. c #618792",
"a. c #658A95",
"s. c #678D98",
"d. c #698F9A",
"f. c #6A919C",
"g. c #9F8B81",
"h. c #A38E84",
"j. c #AE8E84",
"k. c #AB968B",
"l. c #AF998E",
"z. c #A99186",
"x. c #B4958A",
"c. c #BE998E",
"v. c #B49E92",
"b. c #BAA397",
"n. c #C6A095",
"m. c #CEA69A",
"M. c #D4AB9F",
"N. c #C6AEA1",
"B. c #C8AFA2",
"V. c #D6ACA0",
"C. c #CBB1A4",
"Z. c #D6BBAD",
"A. c #DCB5A8",
"S. c #DABFB1",
"D. c #E6B9AC",
"F. c #EBBEB1",
"G. c #DFC3B5",
"H. c #EDC2B4",
"J. c #E3C6B8",
"K. c #E7CABB",
"L. c #F2C3B5",
"P. c #F6C7B8",
"I. c #F4C9BA",
"U. c #FBCBBC",
"Y. c #EFD1C2",
"T. c #F3D4C5",
"R. c #FFD5C5",
"E. c #F6D8C8",
"W. c #FEDDCE",
"Q. c #FBD7C8",
"!. c #FFE5D5",
"~. c #FFE2D1",
/* pixels */
"                                                                                                                        ",
"                                                                                                                        ",
". . . . . .                                                                                                 . . . . . . ",
". : ( P D @ .                                                                                             . O K ( H = . ",
". w s.u.) + .                                         . . . . . .                                         . & t.p.' 0 . ",
". w a.y.) + .                                       . + d I I d + .                                       . & t.u.' 0 . ",
". w a.y.) + .                                     . u v.T.W.W.T.x.u .                                     . & t.u.' 0 . ",
". y a.y.) + .                                   . ; N.~.~.W.W.~.W.n.; .                                   . & t.u.' 0 . ",
"  ` s.y.) + .     . . . . . .                   . Q ~.W.W.W.W.W.W.R.! .                   . . . . . .     . & t.u.' 0 . ",
"  f.s.y.) + .   . ; j v c a o .                 . :.~.W.W.W.W.W.W.R.-..                 . + d v c j ; .   . & t.u.' 0 . ",
"  y.s.y.) + . . . &.E.E.T.F.d . . . . . . . . . . h.~.W.W.W.W.W.W.R.,.. . . . . . . . . . j K.E.T.U.%.. . . & t.u.' 0 . ",
". g a.y.) + . . . =.!.!.W.U.c . . . . . . . . . . h.~.W.~.W.W.W.W.R.,.. . . . . . . . . . v E.!.~.R.*.. . . & t.u.' 0 . ",
". w a.y.) + .   . d h.k.z.*.% .               . . h.~.W.~.~.~.~.W.R.,.. .               . - =.k.z.,.a .   . & t.u.' 0 . ",
". w a.y.) + .   . . . . . . .                 . . =.~.W.~.~.W.W.W.R.*.. .                 . . . . . . .   . & t.u.' 0 . ",
". w a.y.) + .     . U *.d .       . . . . . . . . j Y.~.W.W.W.W.W.H.d . . . . . . . .       . d *.U .     . & t.u.' 0 . ",
". w a.y.) + .     . j.W.~ .     . @ m =.l.Q . B l . ^ T.~.~.~.~.I.W . l B . Q l.=.m @ .     . ~ W.j..     . & t.u.' 0 . ",
". w a.y.) + .     . k.!.^ . . . 3 h.T.~.!.z..  .;., . E S.T.T.A.R . < ;. .. z.!.~.T.h.3 . . . ^ !.k..     . & t.u.' 0 . ",
". w a.y.) + .     . k.!.^ . . t B.~.~.W.~.k.. } 7.1 . . > p p ; . . 1 7.} . k.~.W.~.~.N.t . . ^ !.k..     . & t.u.' 0 . ",
". w a.y.) + .     . k.!.^ . % b.~.W.W.W.~.k.. } 7.2 t / d 7 7 d / t 2 7.} . k.~.W.W.W.~.b.% . ^ !.k..     . + t.i.' 0 . ",
". + h g w @ .     . k.!.h.3 &.W.W.W.W.W.~.h..  .q.5 t H.I.F.F.I.H.t 9 q. .. h.~.W.W.W.W.W.&.3 h.!.k..     . @ f h r + . ",
"  . . . . .       . k.~.E.J.E.~.W.W.~.~.!.>.. ..e.z + C.~.W.W.~.C.+ z e.... >.!.~.~.W.W.~.E.J.E.~.k..       . . . . .   ",
"                  . k.~.W.~.W.W.W.~.Y.:.h.^ . #.e.X.. [ ~.~.~.~.[ . X.e.#.. ^ h.:.Y.~.W.W.W.~.W.~.k..                   ",
"                  . k.~.W.W.W.W.~.S.I . @ $ # 2.e.8.1 - l.W.W.l.- 1 8.e.2.# $ @ . I S.~.W.W.W.W.~.k..                   ",
"                  . k.~.W.W.~.W.k.u . . . . 9 7.e.e.O.o $ T T $ o O.e.e.5.6 . . . . u k.W.~.W.W.~.k..                   ",
"                  . k.!.~.~.Z.! + .     . . z w.e.e.e.O.9 X X 9 O.e.e.e.4.l . .     . + ! Z.~.~.!.k..                   ",
"                  . { T.G.&.3 . .         . 2 3.e.e.e.e.7.1.1.7.e.e.e.w.@.< .         . . 3 &.G.T.{ .                   ",
"                  . + s 3 . .               . X.e.e.e.e.e.e.e.e.e.e.e.9.| .               . . 3 s + .                   ",
"                    . . . .                 . V e.e.e.e.e.e.e.e.e.e.e.6.x .                 . . . .                     ",
"                                            . k w.e.e.e.e.e.e.e.e.e.e.4.k .                                             ",
"                                    . . . . . 2 $.w.e.e.e.e.e.e.e.e.w.+.< . . . . .                                     ",
"                                  . . M &.N @ . o C 0.e.e.e.e.e.e.0.C o . @ Y &.b . .                                   ",
"                                  . m Y.W.P.Y . O . Z e.e.e.e.e.e.Z . O . I T.W.H.b .                                   ",
"                                  . &.~.W.R.-.. S : # } o.o.o.o.} # : A . :.!.W.R.%..                                   ",
"                                  . z.~.W.R.x.X F _ + . . . . . . + _ F X b.~.W.R.,..                                   ",
"                                . + b.~.W.R.m.$ f s.] K J J J J K ] s.f $ C.~.W.R.c.o .                                 ",
"                                . - Z.~.W.R.D.4 q a.d.d.d.d.d.d.d.d.a.q 4 J.~.W.R.V.- .                                 ",
"                                . t K.~.W.R.L.i = u.d.s.s.s.s.s.s.d.u.= p T.~.W.R.D.8 .                                 ",
"                                . d T.~.W.W.U.b + t.d.s.s.s.s.s.s.d.t.+ b E.W.W.W.L.a .                                 ",
"                                . d T.W.W.W.U.b + t.d.s.s.s.s.s.s.d.t.+ b E.W.W.W.L.a .                                 ",
"                                . t K.~.W.R.L.i * t.d.d.d.d.d.d.d.d.t.* p T.~.W.W.D.7 .                                 ",
"                                . + N.~.W.R.M.- . q A G G G G G G A q . ; Z.~.W.R.n.+ .                                 ",
"                                  . =.~.W.R.>.. . . . . . . . . . . . . . g.~.W.R.*..                                   ",
"                                  . T W.W.R.W .                         . Q ~.W.U.U .                                   ",
"                                  . v E.W.U.N .                         . Y W.W.P.c .                                   ",
"                                  . d T.W.U.b .                         . M E.W.P.c .                                   ",
"                                  . d T.W.U.b .                         . M E.W.U.c.                                    ",
"                                  . d T.W.U.b .                         . M E.W.U.R.                                    ",
"                                  . d T.W.U.b .                         . M E.W.U.A.                                    ",
"                                  . d E.W.U.b .                         . M W.W.U.N .                                   ",
"                                  . t z.x.j.i .                         . p k.x.<.3 .                                   ",
"                                  . . . . . . .                         . . . . . . .                                   ",
"                                . . f G F A : .                         . q G G S e . .                                 ",
"                                . q u.f.a.r.S .                         . J f.d.p.` : .                                 ",
"                              . @ _ d.s.a.r.L . .                     . . _ d.s.s.y.L @ .                               ",
"                              . g a.s.s.s.r.( O .                     . + ] d.s.s.p.' e .                               ",
"                            . . ) f.d.d.d.y.` * .                     . = u.f.d.d.s.r.H . .                             ",
"                              . y ) _ _ _ K g @ .                     . @ F _ _ _ ) L q .                               ",
"                              . . . . . . . . .                         . . . . . . . . .                               ",
"                                                                                                                        ",
"                                                                                                                        "
};
