/* XPM */
static char *gym51712319876[] = {
/* columns rows colors chars-per-pixel */
"60 60 159 2 ",
"   c None",
".  c #010000",
"X  c #0B0503",
"o  c #0E0904",
"O  c #050608",
"+  c #07090B",
"@  c #0A0A0C",
"#  c #140605",
"$  c #120A04",
"%  c #1B0C03",
"&  c #140C09",
"*  c #1A0D09",
"=  c #1E1000",
"-  c #15110E",
";  c #1D110C",
":  c #0B0D11",
">  c #0E1116",
",  c #0F1218",
"<  c #12151B",
"1  c #240C0A",
"2  c #2C0E0C",
"3  c #231300",
"4  c #2A1600",
"5  c #2F1900",
"6  c #23150E",
"7  c #341C00",
"8  c #3B1F00",
"9  c #34110E",
"0  c #271710",
"q  c #2B1A11",
"w  c #251D18",
"e  c #3B1410",
"r  c #321E14",
"t  c #3F2200",
"y  c #2A211B",
"u  c #372116",
"i  c #392217",
"p  c #30261F",
"a  c #3D2418",
"s  c #151A21",
"d  c #191E26",
"f  c #1D232C",
"g  c #1F2530",
"h  c #352A22",
"j  c #202732",
"k  c #222935",
"l  c #252D3A",
"z  c #28313F",
"x  c #431613",
"c  c #4B1915",
"v  c #511B17",
"b  c #5B1E19",
"n  c #551D18",
"m  c #472600",
"M  c #482700",
"N  c #4D2900",
"B  c #532C00",
"V  c #582F00",
"C  c #5C3100",
"Z  c #42271B",
"A  c #45291C",
"S  c #4D2D1E",
"D  c #643500",
"F  c #6C3A00",
"G  c #743E00",
"H  c #65221C",
"J  c #6C241E",
"K  c #512F20",
"L  c #41332A",
"P  c #47392E",
"I  c #553222",
"U  c #5A3524",
"Y  c #5F3826",
"T  c #762721",
"R  c #603927",
"E  c #663D29",
"W  c #693E2A",
"Q  c #774000",
"!  c #7C4200",
"~  c #594739",
"^  c #5C493B",
"/  c #524135",
"(  c #6D412C",
")  c #73442E",
"_  c #774730",
"`  c #794730",
"'  c #7C4A32",
"]  c #2C3645",
"[  c #2F3949",
"{  c #313B4C",
"}  c #735B4A",
"|  c #785F4D",
" . c #7D6350",
".. c #842D25",
"X. c #8A2E26",
"o. c #943229",
"O. c #9C342B",
"+. c #A2362D",
"@. c #A7392F",
"#. c #AC3A30",
"$. c #B63D32",
"%. c #BD3E34",
"&. c #844700",
"*. c #8B4A00",
"=. c #934E00",
"-. c #9B5300",
";. c #A65800",
":. c #AB5B00",
">. c #B25F00",
",. c #B56100",
"<. c #BD6500",
"1. c #844E35",
"2. c #875036",
"3. c #895137",
"4. c #8E5438",
"5. c #92563A",
"6. c #95583B",
"7. c #BC4035",
"8. c #C16700",
"9. c #C46900",
"0. c #CB6C00",
"q. c #D06F00",
"w. c #D47100",
"e. c #DB7500",
"r. c #E07700",
"t. c #E47900",
"y. c #EB7D00",
"u. c #C54236",
"i. c #CC4539",
"p. c #CA4337",
"a. c #D4463A",
"s. c #D5483B",
"d. c #DD493D",
"f. c #E54C3F",
"g. c #E84D3F",
"h. c #896C58",
"j. c #93745E",
"k. c #9C7C64",
"l. c #E64E40",
"z. c #EA4E40",
"x. c #EF5143",
"c. c #F35244",
"v. c #F85445",
"b. c #EF8000",
"n. c #F48200",
"m. c #FA8500",
"M. c #FE8800",
"N. c #B99277",
"B. c #C39A7D",
"V. c #CBA082",
"C. c #D5A889",
"Z. c #E6B694",
"A. c #EAB996",
"S. c #EEBC99",
"D. c #F2BF9B",
"F. c #F8C59F",
"G. c #F5C29D",
"H. c #FFCBA5",
"J. c #FCC7A2",
/* pixels */
"                                                                                                                        ",
"                                                                                                                        ",
"                                                                    . . . . . . . . . . . .                             ",
"                                                                  . . & q q q q q q q 0 6 o . .                         ",
"                                                                . . i 1.4.4.4.5.4.4.4.3.1.R ; . .                       ",
"                                                            . . # I 4.6.6.6.6.6.5.5.5.4.3.3.) r . .                     ",
"                                                          . . 6 W 6.4.5.5.5.( K ' 5.5.5.3.2.3.1.S o . .                 ",
"                                                      . . . a 1.6.5.6.6.4.6.a . R 5.5.5.3.3.2.3.3.W ; . .               ",
"                                                      . $ U 4.6.4.6.5.5.5.5.W K ' 5.5.5.4.2.2.1.( 2.` u X .             ",
"                                                    . X E 6.5.5.5.5.5.5.5.5.6.6.5.5.5.5.4.3.2.I o Z ' 2.i .             ",
"                                              .     . 6 3.5.5.5.5.5.5.5.5.5.5.5.5.5.5.5.5.3.2.Y o . r 1.E . .           ",
"                                            . . . . . A 6.6.4.3.5.5.5.5.5.5.5.5.5.5.5.5.5.4.2.2.( & X ( ' * .           ",
"                                          . + h X . O ( 6.1.q r 3.6.5.5.5.5.5.5.5.5.5.5.5.4.2.2.3.Z . A 3.i .           ",
"                                      . . o h.A.^ . & 1.6.1.* 0 2.5.5.5.5.5.5.5.5.5.5.5.5.3.1._ 2.E X u 3.R O .         ",
"                                    . . . . j.G.} . # ' 6.4.' 1.5.6.5.5.5.5.5.5.5.5.5.5.5.2.a # W 1.( ' 3.` & .         ",
"                                  . . v o.& - h X . I 4.6.4.6.5.5.5.5.4.6.5.5.5.5.5.5.5.4.3.A o U 3.2.3.3.2.u .         ",
"                                . X J l.c.J . . . * 2.5.5.5.5.5.5.5.5.5.5.5.5.5.5.5.5.` _ 1.` _ 1.1.1._ W 1.U . .       ",
"                            . . * O.c.x.o.* . . . i 5.5.5.6.5.5.5.5.5.5.5.5.4.5.5.5.2.6 & _ 3.2.3.1.1.0 o ) ` & .       ",
"                          . . 9 %.v.f.J X . . . . S 5.5.5.' W 5.5.5.5.5.5.5.5.5.5.5.4.i r ` 2.2.3.2.1.; . W 1.- .       ",
"                        . . x s.v.p.x . & w @ . . q 4.5.W ; . I 5.5.5.5.5.5.5.5.5.5.5.2.1.2.` I ( 3.) o * ' ( X .       ",
"                        . 9 i.v.#.1 . P V.Z.N.y . o ) I X X X X ( 6.6.5.5.5.5.5.5.5.5.2.1.2.U . u 3.I . u 3.S . .       ",
"                      . X #.x...o . ^ A.J.J.H.k.. . * . - j.h.O ; ' 5.5.5.5.5.5.5.5.5.2.2.2.r . I 2.q . Y 1.0 .         ",
"                      . v c.u.# . & V.H.H.J.H.N.X . . . P G.Z.p . Z 5.5.5.5.5.5.5.4.1.2.3.) # o _ _ o & ` ) X .         ",
"                    . . +.v.z.n . - C.H.H.H.J.} . . x 2 O } ^ . $ E 5.5.5.5.5.5.2.2.2.2.4.U . r 1.U . r 3.K . .         ",
"                    . * a.c.c.a.9 .  .F.H.S. .X X J d.#.# . . 6 ) 5.4.5.5.5.4.3.2.3.` ( 2.1.I _ 2.q . I 2.q .           ",
"                    . e z.c.c.c.$.# X / | L . % o.l.f.X.X . u 1.6._ r I 5._ r q q q ; X R 3.3.' Z X & _ _ o .           ",
"                    . c c.c.c.c.c.X.O . . . 9 $.z.a.H . X S 4.5.6.W . i 3.W X . X . . 6 ( 3.3.S . o I 3.I . .     .     ",
"                    . c x.c.c.c.l.f.H . . b a.z.%.x . o R 4.4.4.4.1.W ) 2.1.W E ( E ( ' 2.` 3.) u ( 3.( ; . . . . .     ",
"                    . e z.c.c.z.l.g.a.J ..d.g.O.1 . .   1.I ( 3.2.2.3.2.3.2.3.3.' ` ' _ a 6 _ 3.2.2.I $ . . . X X .     ",
"                    . # i.c.z.f.f.f.f.f.z.d.T # . .       . $ U 2.3.2.2.2.2.2.1.i & & & . & W 3.` i X . . X N ,.m .     ",
"                    . . @.c.f.g.f.f.g.z.%.v . . .         . . O a ` 3.2.2.2.2.2.i & & & q ( 3.W 0 . . . t ;.b.n.m .     ",
"                      . J z.f.f.f.f.f.o.1 . . . . . . . .     . . 0 ( 3.3.3.3.3.1.' ' ` 1.1.I o . . 4 =.t.M.m.n.m .     ",
"                      . e d.f.f.z.p.b X . : , < > > : O . .     . . $ K E E E E E E E E E i . . % ! e.m.m.m.n.n.M .     ",
"                      . * p.g.f.O.2 . : k { { { [ { { z + .       . . . . X X . . X X . . . % D w.m.M.m.m.m.m.n.m .     ",
"                      . . +.a.J X . < ] { { { { { { { { < .           . . . . . . . . . X B <.n.m.m.m.n.e.y.m.n.m .     ",
"                        . c e . + g [ { [ g g f f k [ { f .                     . . . m :.n.m.m.m.m.n.-.3 *.m.n.m .     ",
"                        . . . < z { { l : . . . . . l { j . .               . . . 7 -.y.m.m.m.m.m.m.m.&.$ &.n.n.m .     ",
"                        . . d [ { [ d . . .     . . g { l . .             . . 3 &.e.m.M.m.m.m.n.m.m.m.t.0.m.m.n.m .     ",
"                        . . l { { ] . .           . d { z . . . . .   . . % D w.m.m.y.9.n.m.m.m.m.m.m.m.m.m.n.n.m .     ",
"                        . . f { { l . .           . < { [ < > , . . . X C 8.m.M.m.t.N = 9.m.m.m.m.m.m.m.m.m.m.n.m .     ",
"                          . < { { l . .           . > { { [ k , . X m >.n.M.m.8.0.y.M t 9.m.m.m.m.m.w.;.n.m.m.n.m .     ",
"                          . @ [ { l O .           . : [ ] s . . 7 -.y.M.m.w.G $ m b.e.y.m.m.m.m.t.*.3 $ 8.m.m.n.m .     ",
"                          . : [ { l . .           . O < O . 3 *.t.m.m.t.&.3 . = &.b.m.m.m.m.y.-.7 . o D e.m.m.n.m .     ",
"                        . . j { { f . .           . . . % G e.m.m.m.m.G . $ F w.m.m.m.m.m.M.;.X X B <.m.m.m.m.n.m .     ",
"                      . . s { [ f . .           . . X D 0.m.m.m.m.m.m.8.D 8.m.m.m.m.m.m.m.m.e.F :.n.m.m.m.m.m.n.m .     ",
"                      . > [ ] < . .         . . X N ,.n.m.m.m.m.m.m.m.m.n.M.m.m.m.m.m.n.m.m.m.m.m.m.m.m.m.n.m.n.m .     ",
"                    . . l [ > . .       . . . 8 ;.n.M.m.n.m.m.m.m.m.m.m.m.m.m.m.n.m.m.m.m.m.m.m.m.m.m.m.m.m.m.n.m .     ",
"                    . . f [ + .     . . . 4 =.t.m.m.y.m.m.m.m.m.m.m.m.n.m.n.m.m.m.m.m.m.m.n.m.m.m.m.y.n.m.m.m.n.m .     ",
"                      . : ] + . . . . = ! e.M.m.b.=.m 0.m.m.m.m.m.m.m.n.y.m.m.m.m.m.m.m.n.m.m.m.n.<.N *.m.m.m.n.m .     ",
"                      . . f + . . $ D q.m.m.m.m.y.m . -.m.m.m.m.m.n.0.D B t.m.m.m.m.m.m.m.m.m.9.D o . V n.m.n.n.m .     ",
"                        . O . X B <.n.M.m.m.m.m.m.8.>.n.m.m.m.m.e.Q % . 5 w.m.m.m.m.m.m.m.w.G % . 4 *.t.m.m.m.n.m .     ",
"                      . . . t :.n.m.m.e.t.m.m.m.m.m.m.m.m.m.t.*.3 . % Q e.n.m.m.m.m.m.e.*.3 . % ! e.M.m.m.m.m.n.m .     ",
"                  . . . 5 -.y.m.m.m.:.3 D n.m.m.m.m.m.m.m.0.7 . $ D q.m.m.n.m.m.m.y.-.5 . $ D q.m.m.m.n.n.m.m.n.m .     ",
"                . . 3 &.r.m.m.m.m.M.:.% F y.m.n.n.m.m.m.m.w.7 B 8.n.m.m.m.m.m.m.t.N . X V 9.m.m.m.m.m.m.m.m.m.n.m .     ",
"            . . % F w.m.m.m.m.m.m.m.n.0.n.m.m.m.m.m.m.m.m.m.e.n.M.m.m.n.m.m.m.m.n.C m >.n.m.m.m.m.m.m.m.m.m.m.n.m .     ",
"        . . X B <.n.n.n.n.n.n.n.n.n.n.n.n.n.n.n.n.n.n.n.n.n.n.n.n.n.n.n.n.n.n.n.n.r.t.m.n.n.n.n.n.n.n.n.n.n.n.y.m .     ",
"    . . . . o m m m m m m m m m m m m m m m m m m m m m m m m m N m m m m m m m m m M m m m m m m m m m m m m m $ .     ",
"    . . . . . . . . . . . . . . . . . . . . . . . . . . . . . . . . . . . . . . . . . . . . . . . . . . . . . . . .     ",
"                                                                                                                        ",
"                                                                                                                        "
};
