/* XPM */
static char *gym31712319876[] = {
/* columns rows colors chars-per-pixel */
"60 60 197 2 ",
"   c None",
".  c #2C3759",
"X  c #2D395C",
"o  c #333D5C",
"O  c #7D3F4D",
"+  c #38415C",
"@  c #3A4564",
"#  c #3C4967",
"$  c #3B4768",
"%  c #3E4A68",
"&  c #354161",
"*  c #545958",
"=  c #7E4250",
"-  c #797758",
";  c #767659",
":  c #686B59",
">  c #4A5564",
",  c #52546E",
"<  c #535B67",
"1  c #5A5870",
"2  c #575671",
"3  c #686C64",
"4  c #797B61",
"5  c #686074",
"6  c #786978",
"7  c #A96F37",
"8  c #8B4E5C",
"9  c #925559",
"0  c #995D54",
"q  c #8E515A",
"w  c #9E6350",
"e  c #AD794A",
"r  c #B47C41",
"t  c #B07745",
"y  c #A36D42",
"u  c #935966",
"i  c #8B5561",
"p  c #9B6773",
"a  c #8C737F",
"s  c #AA6D74",
"d  c #F0BE1B",
"f  c #CB9533",
"g  c #DDA927",
"h  c #E2AF24",
"j  c #F2BA29",
"k  c #FFCF0F",
"l  c #FFD00E",
"z  c #FFCF11",
"x  c #FFCD19",
"c  c #F5C418",
"v  c #FFD011",
"b  c #FFD31B",
"n  c #D5C635",
"m  c #ECCA25",
"M  c #FFCB23",
"N  c #FFCA2E",
"B  c #FDC623",
"V  c #FFD623",
"C  c #FFDA2E",
"Z  c #FFC838",
"A  c #FFDB32",
"S  c #FFDE3A",
"D  c #989355",
"F  c #A39D5C",
"G  c #868561",
"H  c #9C9265",
"J  c #8BB577",
"K  c #A3BB62",
"L  c #C39651",
"P  c #CABD54",
"I  c #FFBE5B",
"U  c #FDBA55",
"Y  c #FBB841",
"T  c #E49E73",
"R  c #F8A768",
"E  c #F7A77B",
"W  c #FFB971",
"Q  c #FFB77C",
"!  c #BCC04C",
"~  c #D0C358",
"^  c #FDC24D",
"/  c #FFC853",
"(  c #E7D457",
")  c #F0DD55",
"_  c #FFE141",
"`  c #FFE54C",
"'  c #FEE753",
"]  c #FFE854",
"[  c #FFE35A",
"{  c #F6E257",
"}  c #F7CA6E",
"|  c #FFDC63",
" . c #FFD56D",
".. c #FFD86A",
"X. c #F0D065",
"o. c #FFCF76",
"O. c #FFCB7B",
"+. c #FAC57C",
"@. c #FFD373",
"#. c #FFE36B",
"$. c #A77A84",
"%. c #76B189",
"&. c #66AD97",
"*. c #5AAAA3",
"=. c #50ADB8",
"-. c #1886C8",
";. c #1784C6",
":. c #2993C4",
">. c #269CDB",
",. c #399EDA",
"<. c #37A3C1",
"1. c #3CA4DF",
"2. c #0A99E6",
"3. c #0A99E8",
"4. c #0798E9",
"5. c #139AE4",
"6. c #1A9BE3",
"7. c #279FE2",
"8. c #35A2E0",
"9. c #2CA0E1",
"0. c #479FD6",
"q. c #509FD3",
"w. c #4AADC1",
"e. c #4BA7DD",
"r. c #55A6D7",
"t. c #66A1CD",
"y. c #78A4C9",
"u. c #69AED8",
"i. c #7AB1D6",
"p. c #70AFD7",
"a. c #B1868A",
"s. c #BB8B8D",
"d. c #8AAD9C",
"f. c #BB97A3",
"g. c #9DA6BD",
"h. c #B7A8B6",
"j. c #B3A5B4",
"k. c #D69995",
"l. c #F4958C",
"z. c #F6998F",
"x. c #F9998E",
"c. c #E49C96",
"v. c #F69A91",
"b. c #F89E93",
"n. c #DDAA83",
"m. c #FFB58B",
"M. c #FFBD8E",
"N. c #FBB584",
"B. c #ECA49B",
"V. c #E5A396",
"C. c #F6A097",
"Z. c #FBA499",
"A. c #FEAB9D",
"S. c #FAA994",
"D. c #FFB595",
"F. c #FFBA93",
"G. c #FFB29B",
"H. c #FBBA9D",
"J. c #F5A984",
"K. c #D4ABAB",
"L. c #D8ABAC",
"P. c #CEAAAF",
"I. c #E7ACA8",
"U. c #FFAEA1",
"Y. c #F6AEA4",
"T. c #FFB1A4",
"R. c #FEB6AA",
"E. c #FEBAAE",
"W. c #FDBEB2",
"Q. c #ECB5AE",
"!. c #FFC483",
"~. c #FFC089",
"^. c #FFC998",
"/. c #FFD895",
"(. c #FFCFAA",
"). c #FEC2B5",
"_. c #FFCABD",
"`. c #FFC8B8",
"'. c #FFD1B8",
"]. c #87A6C6",
"[. c #9DBAD1",
"{. c #81B0D2",
"}. c #AABDCF",
"|. c #C8C2C9",
" X c #DFC8C7",
".X c #DDD4D9",
"XX c #DFCED2",
"oX c #F4CDC4",
"OX c #FFCFC2",
"+X c #FFD0C2",
"@X c #FCD5CB",
"#X c #FFD8CD",
"$X c #E2D7DA",
"%X c #E7CAC6",
"&X c #EBEEF1",
"*X c #FEFCFC",
"=X c #EFE9EB",
/* pixels */
"                                                z z z z z z z z z z z z                                                 ",
"                                          z z z z z z z z z z z z z z z z z z                                           ",
"                                    z z z z z z z z z z l z z z z z z z z z z z z z                                     ",
"                                z z z z z z z z z z v c h d x v l v z z z z z z z z z z                                 ",
"                            z z z z z z z z z z z z g t 9 0 e f f c l v z z z z z z z z z z                             ",
"                          z z z z z z z z z z v c r q 8 q 8 8 8 8 t h l z z z z z z z z z z z                           ",
"                      z z z z z z z z z z z z v h 9 8 8 8 8 8 8 8 8 w c v z z z z z z z z z z z z                       ",
"                    z z z z z z z z z z z z z z r 8 8 8 8 8 8 8 8 8 q h v z v v z z z z z z z z z z                     ",
"                  z z z z z z z z z z z z z z z 7 = p $.u u i u s p 9 h v v v v z z z z z z z z z z z                   ",
"                z z z z z z z z z z z z z z z z 7 = |.&X.X.X$X=X*X$Xu f v v v v z z z z z z z z v z z z                 ",
"              z z z z z z z z z z z z z z z b A y 9 $X&X&X*X*X*X*X=Xs L C b v l z z z z z z z z z z z z z               ",
"            z z z z z z z z z z z z z z V S ` ' e p W.@X@X@X#X@X#X@Xs F ] ] S V z z z z z z z z z z z z z z             ",
"            z z z z z z z z z z z z b S ' ' ] [ T c.R._.+XOX_.+XOXOXQ.J.[ ] ] ' S b z z z z z z z z z z z z             ",
"          z z z z z z z z v z z z V ` ] ] ] ] [ J.A.R.OX+X+X+X+X+X+X_.F.[ ] ] ] ] ` V z z z z z z z z z z z z           ",
"        z z z z z z z z z z z v C ' ' ' ] ] ] ] W S.T.OX+XOXOXOX+X+X).o.] ] ] ] ] ] ' C v z z z z z z z z z z z         ",
"        z z z z z z z z z z v A ' ] ] ' ] ] ] ] ] +.U.`.OXOXOXOX_.+X/.] ] ] ] ] ] ] ] ' A v z z z z z z z z z z         ",
"      z z z z z z z z z z z A ] ' ] ] ' ] ] ] ] ] | G.W.+XOXOXOX+X'.#.] ] ] ] ] ] ] ] ] ] C z z z z z z z z z z z       ",
"      z z z z z z z z z z V ` ] ] ] ] ] ] ] ] ] ] ] ~.T._.+XOXOX+X/.[ ] ] ] ] ] ] ] ] ] ] ` V v z z z z z z z z z       ",
"    z z z z z z z z z z b ` ] ] ] ] ] ] ] ] ] ] ] ] | G.E.OXOXOX'.#.] ] ] ] ] ] ] ] ] ] ] ] ` b z z z z z z z z z z     ",
"    z z z z z z z z z z S ] ] ] ] ] ] ] ] ] ] ] ] ] ] N.U.W.OX_.^.] ] ] ] ] ] ] ] ] ] ] ] ' ] S z z z z z z z z z z     ",
"    z z z z z z z z z V ` ] ] ] ] ] ] ] ] ] ] ] ] ] ] E z.Z.U.R.~.] ] ] ] ] ] ] ] ] ] ] ] ] ] ` V z z z z z z z z z     ",
"  z z z z z z z z z z S ] ] ] ] ] ] ] ] ] ] ] { ( X.@.S.Z.Z.U.U.G.o.X.( { ] ] ] ] ] ] ] ] ] ] ] S z z z z z z z z z z   ",
"  z z z z z z z z z b ` ] ] ] ] ] ] ] ] | } H 3 < s.U.U.U.U.U.U.U.U.s.< 3 H } | ] ] ] ] ] ] ] ] ` b z z z z z z z z z   ",
"  z z z z z z z z z A ] ] ] ] ] ] | o.M.G.B.2 $ % s.U.U.U.U.U.U.G.T.s.% @ 1 B.G.M.O.| ] ] ] ] ] ] C z z z z v z z z z   ",
"z z z z z z z z z z _ ] ] ] ] ] | G.U.U.T.B.2 # % s.T.A.U.U.U.U.U.T.s.% % 1 B.U.U.U.D...] ] ] ] ] _ z z z z z z z z z z ",
"z z z z z z z z k b ` ] ] ] ] ] !.U.U.A.T.B.1 # % a.T.A.U.U.A.T.U.U.a.% % 1 B.T.U.A.U.!.] ] ] ] ] ` b z z z z z z z z z ",
"z z z z z z z z k V ' ] ] ] ] [ F.U.U.T.T.B.1 # % $.Y.Y.U.U.U.U.U.U.a $ @ 1 B.U.T.U.U.F.] ] ] ] ] ] V k z z z z z z z z ",
"z z z z z z z z k C ] ] ] ] ] | G.U.U.U.A.B.1 # % , k.A.T.U.U.U.G.k., % % 1 B.U.U.U.U.D.| ] ] ] ] ] C z z z z z z z z z ",
"z z z z z z z z k C ] ] ] ] ] ..G.U.U.U.T.V.2 # % % 5 k.A.T.T.A.k.5 $ % # 1 B.T.U.U.U.G...] ] ] ] ] C z z z z z z z z z ",
"z z z z z z z v z A ] ] ] ] ] @.U.U.U.U.T.V., % % % $ , a a.a.a , % % % # , c.U.U.U.U.U.@.] ] ] ] ] A z z z z z z z z z ",
"z z z z z z z z l A ] ] ] ] ] O.U.U.U.U.V.6 % # % % % % $ % % $ % % % % % % 6 V.U.U.U.U.O.] ] ] ] ] A z z z z z z z z z ",
"z z z z z z z z l C ] ] ] ] ] !.U.U.U.T.T > % % % % % % % % % % % % % % % % < n.U.U.U.U.!.] ] ] ] ] C k z z z z z z z z ",
"z z z z z z z z z C ] ] ] ] ] ~.U.U.U.U.+.: @ % % % % % $ > $ % > $ $ > # # 4 +.Y.U.U.U.M.] ] ] ] ] C k z z z z z z z z ",
"z z z z z z z z k V ' ] ] ] ] M.U.U.U.U.@.D o % % % % % $ $ $ $ $ $ $ $ # $ F @.U.U.U.U.M.] ] ] ] ' V k z z z z z z z z ",
"z z z z z z z z k b ` ] ' ] ] F.U.U.A.T...P o & % % % % > $ % % $ % $ % # > ~ ..U.U.U.U.F.] ] ] ] ` b k z z z z z z z z ",
"z z z z z z z z z z _ ] ] ] [ F.U.U.U.G.| ) * . o @ @ @ @ % % % > % % % $ 3 ) | G.U.U.U.F.[ ] ] ] _ v z z z z z z z z z ",
"  z z z z z z z z z A ] ] ] [ D.U.U.U.G.[ ] : . o o & @ @ @ % % $ $ % % $ 4 ] #.G.U.U.U.D.[ ] ] ] A v z z z z z z z z   ",
"  z z z z z z v z z b ` ] ] [ G.U.U.U.D.[ ] - . o % % % $ > % % > $ % $ % G ] [ F.U.U.T.D.[ ] ] ` b z z z z z z z z z   ",
"  z z z z z z z z z z S ] ] #.D.U.U.U.M.] ] - . o % % $ $ % % % $ $ , $ $ G [ ] ~.U.A.U.G.| ] ] S z z z z z z z z z z   ",
"    z z z z z z z z k V ' ] O.A.U.U.U.O.] ] - . o % > @ % % % % $ $ $ $ $ G ] ] O.U.U.U.U.O.] ' V z z z z z z z z z     ",
"    z z z z z z z z z z S  .G.U.U.U.T. .] ' - . & % % % % % % % % % % % # G ] ]  .U.U.U.U.G. .S z z z z z z z z z z     ",
"    z z z z z z z z z z N D.U.U.U.U.M.[ ] ' - . X % % % % % % % % # % % $ G ] ] [ M.U.U.U.U.D.N k z z z z z z z z z     ",
"      z z z z z z z k z W U.U.U.Y.D.#.] ] ] - . & # % % % % % % % % % % # G ] ] ] ..F.A.U.U.U.W x z z z z z z z z       ",
"      z z z z z z z z I U.U.U.U.D.| ' ] ] ' - . o # > % % % % % % % % % $ G ] ] ] ] ..D.U.U.U.U.I z z z z z z z z       ",
"        z z z z z k Z G.U.U.U.D.| ' ' ] ' ' ; . o # % % % % % % % % % % $ G ' ] ] ] ] ..m.U.U.U.G.Z z z z z z z         ",
"        z z z z k N m.U.U.U.Q N C ' ' ] ' ' ; . o # % % % % % % % % % % $ G ] ] ] ] ` C N N.U.U.U.m.B z z z z v         ",
"          z l l x W U.U.U.W M z v V ` ] ] ' ; X & % % % % % % % % % % % $ G ] ] ] ` V v l M W U.T.U.W x l l v           ",
"    v.Z.U.Q ^ N U A.U.A.I z k k l l b _ { { 4 X & % % % % % % % % % % % % G { { S b k l l l x I A.U.G.U N ^ Q U.Z.v.    ",
"    Z.  U.U.U.G.A.G.D.U m n ! K J %.&.*.=.=.:.;.;.;.-.-.-.-.-.-.-.-.-.-.-.:.w.=.*.&.%.J K ! n m ^ m.U.A.D.U.U.U.  Z.    ",
"    U.A.U.U.U.U.A.P.d.*.<.>.5.2.2.2.4.4.4.4.4.4.3.3.2.3.3.5.3.3.3.6.3.3.3.3.3.3.4.4.4.3.2.5.>.<.*.d.K.U.U.U.U.U.A.U.    ",
"      U.U.A.U.L.y.>.4.4.2.2.2.2.2.2.2.2.2.2.2.2.2.2.3.5.3.2.2.5.p.|.[.8.2.3.3.2.6.6.2.2.2.2.2.3.4.2.>.y.K.U.U.U.U.      ",
"        I.h.y.>.2.2.2.4.2.2.2.2.2.2.2.2.2.2.4.2.3.3.3.3.2.2.2.e.@X@X+X Xi.e.p.}.|.}.}.e.5.2.2.2.2.2.2.3.>.y.h.I.        ",
"        2.2.4.2.6.,.e.t.t.y.y.{.{.i.i.p.u.u.u.r.r.e.1.8.8.9.7.}.+XOXOXOX+X+X+X+XOXOX+XoXi.6.5.5.5.5.4.4.4.3.5.3.        ",
"      2.3.6.q.g.K.I.Y.R.)._._._._.OX+XOX_.'.+X+XOXoXoXoX%X X XoXOXOXOXOX+X+X+X+XOXOX_.).Y.f.f.h.j.g.y.t.>.5.2.2.5.      ",
"      3.,.h.Y.U.A.R.).OX+X+X+XOX+X+XOXOXOXOX+X+XOX+XOXOXOXOXOXOXOXOXOXOX+XOX_.).R.Y.b.l.l.l.x.A.U.A.U.Y.L.j.q.5.2.      ",
"      0.L.A.U.U.R._.+X+X+X+XOXOXOX+XOXOX+XOXOX+XOXOXOXOXOXOXOXOX+XOX_.).R.Y.C.v.l.l.l.l.l.x.A.U.U.U.U.U.U.U.U.].6.      ",
"      h.U.U.U.U.).+XOXOXOXOXOXOXOX+XOXOX+XOXOX+XOX+X+X+XOX_.`.W.Y.B.b.z.l.l.l.l.l.v.b.Z.A.A.U.U.U.T.U.A.T.A.U.Y.].      ",
"        U.U.U.U.E.+XOX+X+XOXOXOXOXOXOXOX+X+XOXOX_.(.^.H.A.Z.v.l.l.l.l.l.z.v.b.Z.Z.U.U.U.U.U.U.U.U.U.U.U.U.U.U.U.        ",
"          U.U.U.U.W._.+X+XOXOXOXOXOXOXOX+X(.@./ N M x B j Y U R R E J.S.Z.U.U.U.U.A.U.U.U.U.U.U.U.A.U.U.U.U.U.          ",
"            U.T.U.T.T.)._._.OX+XOX              v z v v l l l v x x Z U     U.U.U.U.U.U.U.U.U.U.U.T.U.U.                "
};
