/* XPM */
static char *_64488b7423949edf6d26c098cad46f3xvJ9Wv07HXRskKAD[] = {
/* columns rows colors chars-per-pixel */
"60 60 207 2 ",
"   c None",
".  c #B7022D",
"X  c #BF012B",
"o  c #B8022D",
"O  c #B9022D",
"+  c #BA022C",
"@  c #BB022C",
"#  c #BC012C",
"$  c #BE012C",
"%  c #BC022C",
"&  c #BD022C",
"*  c #E03C1F",
"=  c #C0012B",
"-  c #C1012B",
";  c #C3012B",
":  c #C4012A",
">  c #C5012A",
",  c #C4002B",
"<  c #C4012B",
"1  c #C6002A",
"2  c #C6012A",
"3  c #C7012A",
"4  c #CB0029",
"5  c #CA0129",
"6  c #C8012A",
"7  c #CA002A",
"8  c #CC0029",
"9  c #CD0029",
"0  c #CF0028",
"q  c #CE0029",
"w  c #CF0029",
"e  c #CF0228",
"r  c #D20527",
"t  c #D20627",
"y  c #D30627",
"u  c #D30727",
"i  c #D30827",
"p  c #D30927",
"a  c #D30A27",
"s  c #D40B27",
"d  c #D50F27",
"f  c #D00028",
"g  c #D10028",
"h  c #D10128",
"j  c #D20328",
"k  c #D51225",
"l  c #D61225",
"z  c #D61325",
"x  c #D51026",
"c  c #D51126",
"v  c #D61425",
"b  c #D71725",
"n  c #D71726",
"m  c #D71924",
"M  c #D81924",
"N  c #D81B24",
"B  c #D91D24",
"V  c #D91E24",
"C  c #D91F24",
"Z  c #D91F25",
"A  c #D91C26",
"S  c #DA2223",
"D  c #DA2025",
"F  c #DA2225",
"G  c #DB2625",
"H  c #DC2725",
"J  c #DD2E21",
"K  c #DC2925",
"L  c #DD3021",
"P  c #DE3320",
"I  c #DE3321",
"U  c #DE3520",
"Y  c #DF3424",
"T  c #DF3820",
"R  c #E03A20",
"E  c #E13A23",
"W  c #E13C23",
"Q  c #E1401F",
"!  c #E1411F",
"~  c #E2421E",
"^  c #E2441E",
"/  c #E2461E",
"(  c #E4491D",
")  c #E44D1D",
"_  c #E54E1C",
"`  c #E54F1C",
"'  c #E5511C",
"]  c #E6531C",
"[  c #E6511E",
"{  c #E6541C",
"}  c #E85A1B",
"|  c #E85D1A",
" . c #E8581E",
".. c #E95B1F",
"X. c #EA6219",
"o. c #E9601A",
"O. c #E9611A",
"+. c #EB6719",
"@. c #EB6918",
"#. c #EB6819",
"$. c #EC6A18",
"%. c #EC6C18",
"&. c #EC6D18",
"*. c #ED6E18",
"=. c #ED691F",
"-. c #EE6C1F",
";. c #ED7017",
":. c #ED7117",
">. c #EE7317",
",. c #EE7417",
"<. c #EF7716",
"1. c #EF7816",
"2. c #EF7916",
"3. c #EF7A16",
"4. c #F07A16",
"5. c #F07B16",
"6. c #F07C16",
"7. c #F17F17",
"8. c #F0711F",
"9. c #F37E1E",
"0. c #E34222",
"q. c #E44722",
"w. c #E54A21",
"e. c #E54E20",
"r. c #E64E22",
"t. c #E75121",
"y. c #E95621",
"u. c #E95721",
"i. c #E95821",
"p. c #EA5C20",
"a. c #EA5D20",
"s. c #EB6120",
"d. c #EC6420",
"f. c #F28017",
"g. c #F28117",
"h. c #F28217",
"j. c #F38417",
"k. c #F38517",
"l. c #F38618",
"z. c #F4811D",
"x. c #F6871D",
"c. c #F48818",
"v. c #F48918",
"b. c #F48A18",
"n. c #F58A18",
"m. c #F58C18",
"M. c #F58D18",
"N. c #F68D18",
"B. c #F68E19",
"V. c #F68F19",
"C. c #F78C1C",
"Z. c #F79119",
"A. c #F79219",
"S. c #F79319",
"D. c #F89419",
"F. c #F89519",
"G. c #F89619",
"H. c #F99719",
"J. c #F9961A",
"K. c #FA971C",
"L. c #F99819",
"P. c #F99919",
"I. c #FA9A19",
"U. c #FA9B19",
"Y. c #FA9C19",
"T. c #FB9E1A",
"R. c #FB9F1A",
"E. c #FC9D1B",
"W. c #FC9F1B",
"Q. c #F9991C",
"!. c #FA9A1C",
"~. c #FB9F1C",
"^. c #FCA01A",
"/. c #FCA11A",
"(. c #FDA11B",
"). c #FCA21A",
"_. c #FDA31A",
"`. c #FDA41A",
"'. c #FEA51A",
"]. c #FEA61A",
"[. c #FEA71A",
"{. c #FCA31C",
"}. c #FCA51C",
"|. c #FFA81A",
" X c #FFA91A",
".X c #FFAA1A",
"XX c #FFAB1A",
"oX c #FFAC1A",
"OX c #FFAD1A",
"+X c #FFAE1A",
"@X c #FFAF1A",
"#X c #FFB11B",
"$X c #FFB21B",
"%X c #FFB31B",
"&X c #FFB41B",
"*X c #FFB61B",
"=X c #FFB81B",
"-X c #FFB91B",
";X c #FFBA1B",
":X c #FFBD1B",
">X c #FFBA1C",
",X c #FFBB1C",
"<X c #FFBC1C",
"1X c #FFBF1C",
"2X c #FFC01C",
"3X c #FFC11C",
"4X c #FFC21C",
/* pixels */
"                                                                                                                        ",
"                                                                                                                        ",
"                                                                                                                        ",
"                                                                          g g                                           ",
"                                                                g g     g g g                                           ",
"                                                              g g g     g g g                                           ",
"                                          g               g g g g g     g g g g                                         ",
"                                        g g             g g g g g g     g g g g                                         ",
"                                        g g           g g g g g g       g g g g                                         ",
"                                      g g g         g g g g g g g       g g g g                                         ",
"                                    g g g g       g g g g g g g g g       g g g                                         ",
"                                  g g g g       g g g g g g g g g g       g g g                                         ",
"                                  g g g       g g g g g g g g g g g         g g                                         ",
"                                g g g g     g g g g g g g g g g g g g       g                                           ",
"                                g g g       g g g g g g g g g g g g g       g                                           ",
"                                  g g     g g g g g g g g g g g g g g g                                                 ",
"                                  g       g g g g g g g g g g g g g g g g                                               ",
"                                          g g g g g g g g g g g g g g g g g                                             ",
"                                          g g g g g g g g g g g g g g g g g         o                                   ",
"                                        g g g g g g g g g g g g g g g g g g g       . o                                 ",
"                                        g g g g g g g g g g g g g g g g g g g g     . . o                               ",
"                              g         g g g g g g g g g g g g g g g g g g g g     o . .                               ",
"                            g g         g g g g g g g g g a Q c g g g g g g g g     2 o . .                             ",
"                          g g g g       g g g g g g g g a ` *.v g g g g g g g g     0 $ . . o                           ",
"                          g g g g g     g g g g g g g a ` 2.,.V g g g g g g g g     g 7 . . .                           ",
"                        g g g g g g g   g g g g g g u [ 2.2.2.P g g g g g g g g     g 0 $ . . o                         ",
"                        g g g g g g g g g g g g g g e.V.7.2.2.[ g g g g g g g g   g g g 2 . . .                         ",
"                      g g g g g g g g g g g g g g 0.J.S.V.5.2.;.N g g g g g g g   g g g 0 o . . o                       ",
"                      g g g g g g g g g g g g g K !. XI.S.b.5.2.` g g g g g g g g g g g g $ . . .                       ",
"                      g g g g g g g g g g g g d z.;X#X].J.S.b.5.,.J g g g g g g g g g g g 2 . . .                       ",
"                    g g g g g g g g g g g g g u.@X@X X X_.J.S.b.5.*.S g g g g g g g g g g 7 o . . .                     ",
"                    g g g g g g g g g g g g F ~.3X@X X X XY.S.S.j.2.#.V g g g g g g g g g 0 o . . .                     ",
"                    g g g g g g g g g g g g d.:X;X X X X X].J.S.S.g.2.+.N g g g g g g g g 0 $ . . .                     ",
"                  g g g g g g g g g g g g v !.3X@X X X X X XI.S.S.V.5.2.O.c g g g g g g g g $ . . . o                   ",
"                  g g g g g g g g g g g g R &X1X X X X X X X_.S.S.S.j.2.2.[ u g g g g g g g X . . . o                   ",
"                  g g g g g g g g g g g g i.:X&X X X X X X X].J.S.S.V.5.2.,.U g g g g g g g ; . . . .                   ",
"                  g g g g g g g g g g g g =.3X#X X X X X X X].J.S.S.S.g.2.2.#.c g g g g g g X . . . .                   ",
"                  g g g g g g g g g g g g -.3X#X X X X X X X XJ.S.S.S.l.2.2.2.* g g g g g g $ . . . .                   ",
"                  g g g g g g g g g g g g s.1X&X X X X X X X XJ.S.S.S.b.2.2.2.O.a g g g g 0 o . . . .                   ",
"                  g g g g g g g g g g G u q.;X,X X X X X X X].J.S.S.S.b.2.2.2.;.V g g g g 7 o . . . .                   ",
"                  g g g g g g g g g g u.Y F }.3X@X X X X X X].J.S.S.S.V.2.2.2.2.P g g g g 2 . . . . o                   ",
"                  g g g g g g g g g g a.x.V 8.3X;X X X X X XY.S.S.S.S.V.2.2.2.2.Q g g g g X . . . . o                   ",
"                    g g g g g g g g g e.@X9.t.{.,X X X X X].J.S.S.S.S.b.2.2.2.5./ g g g 0 o . . . .                     ",
"                    g g g g g g g g g W  X XE.E. X X X X XY.S.S.S.S.S.g.2.2.2.2.Q g g g 2 . . . . .                     ",
"                    g g g g g g g g g H _. X X X X X X X_.J.S.S.S.S.V.5.2.2.2.2.U g g 0 o . . . . o                     ",
"                      g g g g g g g g d C. X X X X X X].J.S.S.S.S.S.j.2.2.2.2.;.V g g ; . . . . .                       ",
"                      g g g g g g g g g a. X X X X X_.J.S.S.S.S.S.b.5.2.2.2.2.| a g 7 o . . . . .                       ",
"                        g g g g g g g g V K. X]._.I.S.S.S.S.S.S.b.7.2.2.2.2.,.P g 0 $ . . . . .                         ",
"                        g g g g g g g g g w.I.J.S.S.S.S.S.S.S.b.7.,.2.2.2.2.{ u 0 ; . . . . . o                         ",
"                          g g g g g g g g u ..S.S.S.S.S.S.V.j.5.2.2.2.2.2.O.v 0 ; . . . . . .                           ",
"                            g g g g g g g g s ..b.V.b.l.g.5.2.2.2.2.2.2.O.N 0 ; . . . . . .                             ",
"                              g g g g g g g g u T $.2.2.2.2.2.2.2.2.;.( c 7 $ . . . . . .                               ",
"                                g g g g g g g g g c R } $.;.;.*.O./ V 0 2 o . . . . . .                                 ",
"                                  g g g g g g g g g g u c v m c a 0 2 $ . . . . . . .                                   ",
"                                    0 0 0 g g g g g g g g g 0 7 ; o . . . . . . . o                                     ",
"                                        $ ; ; 2 2 7 2 2 ; X o o . . . . . . . o                                         ",
"                                            . . . . . . . . . . . . . . . o                                             ",
"                                                  o o . . . . . . o o                                                   ",
"                                                                                                                        ",
"                                                                                                                        "
};
