/* XPM */
static char *_f38f5d4be9d49968dc2513a20b043b8I3GN1IGCp1ily1Wb[] = {
/* columns rows colors chars-per-pixel */
"60 60 132 2 ",
"   c None",
".  c #000000",
"X  c #0A0807",
"o  c #050708",
"O  c #07090A",
"+  c #0B0C0C",
"@  c #16110F",
"#  c #0B0F11",
"$  c #0D1214",
"%  c #0F1518",
"&  c #131313",
"*  c #1A1512",
"=  c #1D1814",
"-  c #101618",
";  c #12191D",
":  c #1C1C1C",
">  c #221B17",
",  c #271F1A",
"<  c #2B221D",
"1  c #161E22",
"2  c #182126",
"3  c #1B262A",
"4  c #1D282E",
"5  c #1F2B31",
"6  c #252525",
"7  c #2C2C2C",
"8  c #352B24",
"9  c #3F332A",
"0  c #222E34",
"q  c #233036",
"w  c #26343B",
"e  c #29383F",
"r  c gray20",
"t  c #3B3B3B",
"y  c #4B3C32",
"u  c #504136",
"i  c #58473C",
"p  c #5C4A3E",
"a  c #2C3D44",
"s  c #2F4149",
"d  c #32454E",
"f  c #334750",
"g  c #354A54",
"h  c #384D57",
"j  c #384E58",
"k  c #3B515B",
"l  c #3E5661",
"z  c #3F5863",
"x  c #444444",
"c  c #4C4C4C",
"v  c #535353",
"b  c #5C5C5C",
"n  c #6F5A4B",
"m  c #7A6253",
"M  c #415A66",
"N  c #435D69",
"B  c #46616E",
"V  c #496572",
"C  c #4B6875",
"Z  c #4E6C7A",
"A  c #506F7E",
"S  c #51707E",
"D  c #636363",
"F  c #6C6C6C",
"G  c #727272",
"H  c #7B7B7B",
"J  c #806756",
"K  c #8D715F",
"L  c #907461",
"P  c #957864",
"I  c #9E7F6B",
"U  c #9F806B",
"Y  c #A5856F",
"T  c #547383",
"R  c #577989",
"E  c #5A7C8C",
"W  c #5C7F90",
"Q  c #5E8394",
"!  c #618697",
"~  c #628799",
"^  c #658C9E",
"/  c #678EA1",
"(  c #6992A5",
")  c #6C96AA",
"_  c #709BAF",
"`  c #729EB3",
"'  c #74A1B6",
"]  c #76A4B9",
"[  c #79A7BC",
"{  c #7AA9BF",
"}  c #7BABC1",
"|  c #848484",
" . c #8E8E8E",
".. c gray58",
"X. c #9B9B9B",
"o. c #A5A5A5",
"O. c #AAAAAA",
"+. c #B6B6B6",
"@. c #BCBCBC",
"#. c #C19B82",
"$. c #C8A187",
"%. c #D4AA8F",
"&. c #D9AF93",
"*. c #DDB195",
"=. c #E6B99B",
"-. c #EABC9E",
";. c #F2C3A3",
":. c #FFCDAC",
">. c #FFD0AF",
",. c #C4C4C4",
"<. c #CCCCCC",
"1. c gray83",
"2. c #DADADA",
"3. c #E5E5E5",
"4. c gray92",
"5. c #E9E9E9",
"6. c gray93",
"7. c #EEEEEE",
"8. c #EFEFEF",
"9. c gray94",
"0. c gray95",
"q. c #F3F3F3",
"w. c #F4F4F4",
"e. c gray96",
"r. c #F6F6F6",
"t. c gray97",
"y. c #F9F9F9",
"u. c #FBFBFB",
"i. c gray99",
"p. c #FDFDFD",
"a. c #FEFEFE",
"s. c white",
/* pixels */
"                                                                                  . . . . . .                           ",
"                                                                                . . . . . . . .                         ",
"                                                                            . . . > p K I m < . .                       ",
"                                                                            . . i &.:.>.>.:.*.u . .                     ",
"                                    .                         . . . .     . . 9 -.>.:.:.:.:.>.*., . .                   ",
"                                  . . .                     4.x + . . . . . . U >.:.:.:.:.:.:.:.n . .                   ",
"                                . . .               . . O.s.s.5.,.o.D & . . X $.>.:.:.:.:.:.:.>.L . .                   ",
"                              . . .                 F c 2.s.s.s.s.s.s.@.7 . X #.>.:.:.:.:.:.:.:.m . .                   ",
"                            . . . .             s.s.u.r.s.s.s.s.s.s.s.s.+.+ . J :.:.:.:.:.:.:.-.8 . .                   ",
"                          . . . .         . . 6 5.s.s.s.s.s.s.s.s.s.s.s.5.6 . = #.>.:.:.:.>.;.n . .                     ",
"                        . . .           . . . b q.s.s.s.s.s.s.s.s.s.s.s.q.r . . > P &.=.%.Y y . . .                     ",
"                        . .           . . . D 4.s.s.s.s.s.s.s.s.s.s.s.s.u.c . . . . * , @ . . . .                       ",
"                                    . . . F q.s.s.s.s.s.s.s.s.s.s.s.s.s.s.b . 7 c + . . . . .                           ",
"                                    . . D q.s.s.s.s.s.s.s.s.s.s.s.s.s.s.s.F . c q.H . .                                 ",
"                                  . . c 4.s.s.s.s.s.s.s.s.s.s.s.r.r.s.s.s.H . t u.@.o .                                 ",
"                                . . 7 2.s.s.s.s.s.s.s.s.s.s.s.3.c b 7.s.s.| . r q.2.: .                                 ",
"                              . . & +.s.s.s.s.s.s.s.s.s.s.s.s.@.o + <.s.s. .. 7 7.q.t . .                               ",
"                              . . 7 1.s.s.s.s.s.s.s.s.s.s.s.s.@.+ + <.s.s.... 7 4.s.b . .                               ",
"                            . . . . 6 ..7.s.s.s.s.s.s.s.s.s.s.,.+ + ,.s.s.... 6 4.s.| . .                               ",
"                            . . q $ . . x @.s.s.s.s.s.s.s.s.s.o.o + ,.s.s.... 6 4.s.o.. .                               ",
"                          . . ; ) ~ e o . & F 2.s.s.s.s.s.s.O.: . + <.s.s.... 7 4.s.,.+ .                               ",
"                          . . a [ } ] Z 1 . . 7 X.q.s.s.s.O.& . . & <.s.s. .. 7 4.s.1.& .                               ",
"                          . . N } [ } } ) j + . o c ,.s.,.: . . . & 1.s.s.| . r 7.s.5.6 .                               ",
"                          . . Z } [ [ [ } [ Q q . . & F r . . . . : 2.s.s.H . t r.s.q.t . .                             ",
"                          . . Z } [ [ [ } } } ' V ; . . . .     . 6 5.s.s.F . t r.s.u.c . .                             ",
"                          . . M } [ [ [ } } } } } ( f O . .     . r 7.s.s.b . r 7.s.s.b . .                             ",
"                          . . w [ [ [ [ } } [ [ [ } [ Z O . . . . x r.s.u.c . 6 5.s.s.D . .                             ",
"                            . # ~ } [ [ } } [ [ [ [ } [ z . . . . v s.s.q.r . : 3.s.s.G . .                             ",
"                            . . a ' } } [ [ [ [ } [ [ } ' a . . . x r.s.2.: . : 2.s.s.H . .                             ",
"                              . . h ' } [ [ [ [ } [ [ [ } ) 4 . . + G O.v . . + @.s.s.b . .                             ",
"                              . . . a / } [ } } } } [ [ [ } ! - . . . . . . . . r ..G + . .                             ",
"                                . . . ; T [ } } } } [ [ [ [ } A O . . . .     . . . . . .                               ",
"                                  . . . O j _ } [ [ [ [ [ } } [ l . . .         . . . .                                 ",
"                                    . . . . 5 Q } } [ [ [ [ } } ' a . .                                                 ",
"                                    . . . o . $ B ] } [ [ [ [ [ } ) 4 . .                                               ",
"                                      . + k ; . . a ( } [ [ [ [ [ } Q % . .                                             ",
"                                      . . C ^ q . . 1 T [ } [ [ [ [ } Z O .                                             ",
"                                      . . w [ ` l + . O k ` } [ [ [ } [ a . .                                           ",
"                                        . $ / } } R 2 . . 0 ~ } [ [ [ } S . .                                           ",
"                                        . . V } } } / ; . . % T } [ [ } E o .                                           ",
"                                        . . w ] [ [ [ s . . . a [ [ [ } T . .                                           ",
"                              .           . $ / } [ } V . . . h } [ [ } l . .                                           ",
"                            . . .         . . Z } [ } E o . . C } [ [ [ a . .                                           ",
"                          . . .         . . $ Q } [ } T . . o W } [ } ` 2 . .                                           ",
"                          . .         . . o V [ [ } ] a . . $ ( } [ } / # .                                             ",
"                      . . . .         . . f ] } [ } V o . . 3 ' } } } T . .                                             ",
"                    . . . .         . . 0 _ } [ } E $ . . . a [ [ [ } M . .                                             ",
"                  . . .           . . ; ^ } [ } ^ 1 . . . . l } [ [ [ a . .                                             ",
"                  . .           . . + T } [ } _ q . .   . . A } [ } ' 3 . .                                             ",
"                              . . . M [ [ } ] d . .     . O ! } [ } / $ .                                               ",
"                              . . s ] } [ [ N . . .     . ; ) } [ } R o .                                               ",
"                            . . 4 ) } [ } T + . .     . . 0 ] [ [ } N . .                                               ",
"                          . . % ! } [ } ~ ; . .       . . d [ [ [ [ s . .                                               ",
"                        . . O Z } [ } ) 4 . .         . . N } [ } ' 3 . .                                               ",
"                        . . s [ } } ' a . .           . o T } [ } ( $ .                                                 ",
"                        . . % T [ [ l . . .           . # ^ } [ } E o .                                                 ",
"                          . . + B C O . .             . 1 ` } } } B . .                                                 ",
"                            . . o O . .             . . 1 C Z Z Z 0 . .                                                 ",
"                              . . . .               . . . . . . . . . .                                                 ",
"                                . .                 . . . . . . . . .                                                   "
};
