/* XPM */
static char *werewolf1712321016[] = {
/* columns rows colors chars-per-pixel */
"60 60 169 2 ",
"   c None",
".  c #010101",
"X  c #090306",
"o  c #040708",
"O  c #0D0509",
"+  c #060A0B",
"@  c #090D0E",
"#  c #14090E",
"$  c #15070E",
"%  c #090F10",
"&  c #160A10",
"*  c #180A11",
"=  c #0B1314",
"-  c #0C1619",
";  c #0F1A1C",
":  c #121112",
">  c #101B1D",
",  c #1C1D1E",
"<  c #230E19",
"1  c #28101D",
"2  c #111E21",
"3  c #1F1E21",
"4  c #281620",
"5  c #311424",
"6  c #371628",
"7  c #351C2A",
"8  c #142225",
"9  c #162629",
"0  c #17282B",
"q  c #192A2D",
"w  c #1A2E31",
"e  c #1C3135",
"r  c #1F363A",
"t  c #232223",
"y  c #2D2B2F",
"u  c #2D2C30",
"i  c #21363A",
"p  c #21393D",
"a  c #333234",
"s  c #38383A",
"d  c #4A1F36",
"f  c #4A1F36",
"g  c #4E263C",
"h  c #512B3F",
"j  c #1D3243",
"k  c #233D42",
"l  c #243E53",
"z  c #5B2642",
"x  c #403F40",
"c  c #5E3249",
"v  c #642949",
"b  c #6A2C4E",
"n  c #602846",
"m  c #62344D",
"M  c #722F53",
"N  c #6C3955",
"B  c #663650",
"V  c #743055",
"C  c #7A335A",
"Z  c #254146",
"A  c #284247",
"S  c #27444A",
"D  c #29454B",
"F  c #2B494E",
"G  c #2C4C53",
"H  c #28455C",
"J  c #27445B",
"K  c #2F5259",
"L  c #2E5157",
"P  c #315157",
"I  c #31555C",
"U  c #325760",
"Y  c #355C63",
"T  c #395E64",
"R  c #315571",
"E  c #376067",
"W  c #376168",
"Q  c #3A646C",
"!  c #3E6C75",
"~  c #3F6E79",
"^  c #48474A",
"/  c #4C4B50",
"(  c #545253",
")  c #416C73",
"_  c #42737B",
"`  c #48777F",
"'  c #6D6C75",
"]  c #7B7A7B",
"[  c #80355D",
"{  c #883964",
"}  c #8F3B69",
"|  c #873863",
" . c #933D6C",
".. c #9F4275",
"X. c #934E73",
"o. c #8A496C",
"O. c #467B85",
"+. c #4B7C85",
"@. c #467B88",
"#. c #497F8A",
"$. c #447783",
"%. c #AF4980",
"&. c #B34A83",
"*. c #BB4E8A",
"=. c #807E89",
"-. c #BC6493",
";. c #D3589B",
":. c #D95A9F",
">. c #C06696",
",. c #DD5CA2",
"<. c #E15EA5",
"1. c #D873A9",
"2. c #E479B3",
"3. c #4B828C",
"4. c #50848E",
"5. c #4C8592",
"6. c #4E8A94",
"7. c #4F8A98",
"8. c #518690",
"9. c #528B95",
"0. c #528E9B",
"q. c #53929E",
"w. c #5A949E",
"e. c #4C84AF",
"r. c #5595A3",
"t. c #5798A5",
"y. c #5B9AA5",
"u. c #5A9DAA",
"i. c #5C97A2",
"p. c #4D85B1",
"a. c #5CA1AE",
"s. c #5EA5B2",
"d. c #62A2AD",
"f. c #64A5B1",
"g. c #61AAB7",
"h. c #62ACB9",
"j. c #69ADBA",
"k. c #6BB1BE",
"l. c #67B0BD",
"z. c #6EB6C3",
"x. c #6FB8C5",
"c. c #70B9C6",
"v. c #71BBC9",
"b. c #858489",
"n. c #888690",
"m. c #949294",
"M. c #93919D",
"N. c #9997A1",
"B. c #A6A4A6",
"V. c #ABA9AB",
"C. c #A7A5AC",
"Z. c #B0AEBC",
"A. c #B6B4B6",
"S. c #B6B3BA",
"D. c #BAB8C6",
"F. c #C1BEC1",
"G. c #CAC8CA",
"H. c #D6D3D6",
"J. c #D5D2E3",
"K. c #DFDCE8",
"L. c #E0DDEE",
"P. c #E4E1F3",
"I. c #EBE8F4",
"U. c #F1EEF3",
"Y. c #F4F1F5",
"T. c #F7F4F9",
"R. c #F9F6F9",
"E. c #FCF9FC",
"W. c #ECE9EC",
/* pixels */
"                      . . .                                   . .                           . . .                       ",
"                      . . . . . .                             . . .                   . . . . . .                       ",
"                        . . . X . .                         . . > .               . . . X . . .                         ",
"                        . . . = P w A                 .     . 9 4.- .     . .   . . 8 G = . . .                         ",
"                        . & h . k f.z.c.          . . . . . X ` c.k . . . . . . o G q.p . g # .                         ",
"                          . o.h . _ v.z.p .     . @ o . . + Q z.c.A . @ o . . % _ g.Q . d | .                           ",
"                          . B -.* > f.c.+.@ . . 2 #.> . e 8.x.x.x.D > ) = . @ +.z.r.; * &.v .                           ",
"                          . 7 1.N . ) c.v.) . . ` c.` _ j.v.c.c.c.d.d.y.@ . ) c.z.T . b ;.6 .                           ",
"                          . # -.>.* q j.v.k.D q f.v.v.v.v.c.c.c.c.c.v.f.q D k.v.f.9 * *.*.# .                           ",
"                            . X.2.g + w.v.v.j.d.c.c.c.c.c.c.c.c.c.c.c.c.f.j.c.v.9.o d ,.} .                             ",
"                            . m 2.N . +.v.c.c.v.c.c.c.c.c.c.c.c.c.c.c.c.v.v.c.c.O.. b ,.n .                             ",
"                            . 1 m # . 3.v.k.d.j.c.c.c.c.c.c.c.c.v.c.v.c.j.d.k.x._ . * z < .                             ",
"                            . . . 9 P d.v.I : 2 F 9.c.i.w.z.z.w.y.x.9.D 2 % Y z.r.F 8 . . .                             ",
"                            . . F f.c.v.v.` i 8 . O D > 8 j.j.8 , D + . 2 r +.h.h.g.t.S . .                             ",
"                            . @ i.v.c.c.c.c.z.j.+.q . @ ) z.z.) @ . 9 +.j.k.z.g.g.g.h.9.@ .                             ",
"                            . @ y.v.c.c.c.c.c.v.v.f.4.w.z.v.z.z.w.8.f.v.v.v.l.g.g.g.g.q.@ .                             ",
"                            . - d.v.c.c.v.c.c.c.c.c.v.v.c.c.c.c.v.v.v.c.c.z.h.h.g.g.g.w.= .                             ",
"                            . w k.c.c.k.d.c.c.c.c.c.v.v.v.v.v.v.v.v.c.c.c.k.s.t.s.g.s.a.0 .                             ",
"                          . . ) v.v.f.D 8 d.v.v.c.v.d.4.+.+.+.3.4.d.c.c.x.l.q.2 r a.h.h.Q . .                           ",
"                        . . A j.v.j.k . p j.v.v.v.w.9 . . . . . . 9 i.v.k.h.u.r . p a.h.a.Z . .                         ",
"                      . @ I j.c.v.) . A j.c.w.Q I e . j H H J H j . w Y Q 6.s.a.r . E s.h.a.L + .                       ",
"                    . X ) c.c.c.f.> : y.c.) % . X . . R p.p.e.p.R . . X . % Q s.q.- ; u.h.s.h.W o .                     ",
"                    . . > +.c.v.j.F ) v.4.+ t m.A.m.# - l l l l = = m.A.m.t o @.g.Q Z a.h.s._ > . .                     ",
"                      . . : w.v.z.k.c.v.F X V.E.E.E.b.: . . . X : b.E.E.R.N.o S g.s.s.h.h.6.% . .                       ",
"                      . . 8 i.v.c.c.c.c.p : H.E.E.R.Y.D.M., , B.G.T.R.R.U.D.& r s.g.g.g.h.7.2 . .                       ",
"                      . q y.v.v.c.c.c.c.P . B.E.R.R.U.L.Z.= @ G.E.R.R.U.P.N.. G h.g.g.g.g.g.q.9 .                       ",
"                    . o +.z.z.v.c.c.c.v.9.O / Y.R.R.I.D.s . . h G.T.U.L.J.^ o @.h.g.g.g.h.g.s._ o .                     ",
"                  . . + q i G 4.k.c.v.v.k.i @ A.E.K.b., . z h . 3 n.J.P.C.O e s.g.g.g.g.@.D w 9 o . .                   ",
"                . . . . @ . . , d.c.c.c.v.) . a b./ X # C ;.;.[ < . / =.a . Q h.g.g.h.t.; . . % . . . .                 ",
"            . . - K k W G . - ) c.c.c.c.v.8.o . . . 7 &.<.,.,.<...6 . . . . 3.h.g.g.g.s.Q - . G W k L - . .             ",
"            . 9 #.r.r.5.; - 9.v.c.c.c.c.c.d.- < z . V <.,.,.,.,.<.M . z < = q.h.g.g.g.g.h.#.= ; 5.r.r.$.2 .             ",
"          . - 6.h.u.r.Q . 9 E E w.c.c.c.v.j.9 <  .. n ,.,.,.,.,.<.n X o.* 9 a.h.h.h.s.6.U U 9 . Q t.r.r.$.- .           ",
"        . . Q h.g.a.r.G . . . . k x.v.f.` k + O  .f | ,.,.,.,.,.,.[ g o.O + k ! r.g.s.p . . . . G t.r.r.r.U . .         ",
"        . 8 a.h.s.a.r.K % k r . W j.) > . X + .  .,.,.,.,.,.,.,.,.,.:. .. + o . ; T a.U . r k + K r.r.q.r.6.2 .         ",
"        . L h.h.h.s.r.7.@.q.p o ! i . % Z _ G .  .<.,.,.,.,.,.,.<.<.<.} . G ~ l = . e W o k r.$.e.r.r.r.q.r.S .         ",
"        . _ h.g.g.g.a.t.r.7.8 o = . r @.r.r.S X ..%.%.,.,.,.,.,.<.&...... S r.r.O.r . = . 8 7.r.r.a.a.r.r.r.Q .         ",
"      . o @.h.g.s.h.h.s.r.5.- . o G 7.r.r.q.e . C 5 5 ;.<.<.<.<.;.5 5 C . w r.r.r.0.L o . - 5.r.s.s.s.r.r.r.~ o .       ",
"      . . @.h.g.h.h.s.h.t.#.% . G r.t.s.r.6.; . X X O v V V V V v O X O . ; 7.t.s.r.q.H . % #.t.s.s.s.u.r.r.~ . .       ",
"        . ! h.g.h.h.h.s.r.5.2 w 7.r.s.s.t.#.% t s @ . . . . . . . . O a 3 % #.r.s.u.r.7.e 2 5.t.s.z.s.r.q.r.Y .         ",
"        . I h.g.h.s.s.s.u.r.#.7.r.U S u.r.5.= a H.D.V.V.V.V.V.V.V.V.S.F.u = 5.r.a.S U r.5.#.r.u.s.s.a.r.r.r.G .         ",
"        . Q h.h.h.s.h.s.s.a.t.t.q.2 - u.u.q.j . ] W.R.R.R.E.R.R.E.R.J.' . r r.u.t.- 2 q.r.r.t.s.h.h.s.r.r.r.U .         ",
"      . - q.h.g.h.h.h.s.h.s.s.s.! . Z s.s.r.@.2 . a ( ( ( ( ( ( ( / u . 2 @.r.s.s.Z . ! h.s.h.h.s.l.s.u.r.r.3.= .       ",
"      . G g.h.g.h.h.s.h.s.s.z.@.- % 6.h.s.a.r.@.p - + o + + + + o + % j #.r.a.s.h.3.% - 3.s.h.s.h.s.l.s.r.r.r.l .       ",
"    . @ 3.h.h.s.s.h.h.h.l.s.Q - o Q s.s.s.s.u.r.q.5.@.@.@.@.@.@.@.@.5.q.r.u.s.h.h.h.W o - ! s.h.s.l.s.s.r.r.r.7._       ",
"    . q s.h.h.h.h.s.h.u.Q q o o Q s.s.h.h.h.s.s.u.t.t.t.t.t.w.t.t.t.t.u.s.s.h.h.g.g.s.Q o . q W u.s.s.s.t.r.q.r.r.      ",
"    . I h.s.s.h.h.h.h._ o + % o 3.h.h.h.s.h.s.h.s.s.s.s.s.L I a.s.s.s.s.s.h.h.s.g.h.h.3.@ % @ o ~ z.l.s.s.q.r.r.5.q     ",
"  . o O.h.h.h.h.s.h.s.u._ 7.~ . r s.h.s.h.h.s.h.s.h.s.h.a.> ; a.h.h.s.h.g.g.h.h.g.g.s.r . ! 7.~ u.s.g.h.s.r.r.r._ o .   ",
"    r u.h.h.s.s.h.h.h.h.h.h.r.= o $.z.h.h.s.h.h.h.h.s.h.a.2 > a.s.h.h.s.h.h.s.s.h.h.$.o - t.h.h.h.g.g.h.s.t.q.r.5.= .   ",
"    a.g.g.g.g.h.g.h.h.s.h.h.6.+ . e a.h.g.h.g.g.h.g.g.h.a.; ; a.h.h.h.g.g.h.g.g.h.a.e . + 9.h.s.h.l.s.g.g.a.q.q.0.q .   ",
"    h.g.g.g.g.g.s.u._ a.h.h.! . + . K a.h.h.h.h.h.h.h.h.~ . o ~ h.h.h.h.h.h.h.h.a.K . + . ! h.h.a.~ a.h.g.a.q.r.r.l .   ",
"  9 0.g.g.g.g.g.h.! . ~ l.s.r + Q 9 . w E ~ ~ ! ~ ! ! K = o o % I ! ! ! ! ! ~ E w . 9 Q + r s.l.~ . ! h.s.s.t.q.t.U .   ",
". . O.h.h.g.g.g.h.O.o p s.~ o e s.q.k o . . . . . . . . ; ! ! ; o . . . . . . . + p q.s.e . _ s.r o 3.s.s.s.t.q.r.! . . ",
". + 6.h.g.g.g.g.h.a.r . S ; + @.h.h.a.e . p Q E E E W ~ q.h.h.w.~ Q E Q E Q Z . w a.s.h.3.+ ; D o r s.h.h.s.u.r.r.$.+ . ",
". = q.h.g.g.s.g.g.h.6.> . o E g.g.g._ . e a.h.h.h.h.l.h.h.h.h.g.h.h.h.h.h.h.a.w + ~ h.h.s.E o . ; q.h.s.s.h.t.r.r.#.% . ",
". ; u.g.s.h.h.h.g.g.h._ . 9 u.g.g.a.q + 3.h.g.g.h.h.h.s.s.~ _ s.g.g.g.g.g.g.h.@.+ q s.s.g.a.8 . ~ s.h.h.s.s.t.r.r.5.- . ",
". 8 a.h.h.h.s.h.g.g.g.s.p . O.h.s.3.o p a.a.s.h.h.s.h.h.a.9 2 a.h.g.g.g.g.s.u.s.r o 3.h.g.$.o r s.h.h.s.h.s.u.r.r.7.2 . ",
". 0 a.h.g.h.g.g.g.g.g.h.O.. Z g.h.I . ~ w.9 I s.h.s.h.h.a.; 8 a.g.h.g.h.g.I 9 q.~ . I h.g.Z . ` h.h.h.s.g.g.t.r.r.7.9 . ",
". q s.g.g.g.g.g.g.g.s.h.u.> > u.h.r + 0.u.9 o ! s.s.s.s.@.@ + @.s.s.s.s.! o 9 u.9.+ r s.u.> 8 u.h.s.h.h.g.g.u.r.r.7.9 . ",
". q s.g.g.g.g.g.g.h.h.h.g.r + 7.s.9 - t.h.@.+ + q e e e = . . = w e e q + + @.h.t.- q s.6.+ r g.h.h.s.h.h.h.u.t.r.0.9 . ",
". =                       ; .     + +         . . . . . .     . . . . . .         + +     . ;                       % . "
};
