/* XPM */
static char *gym41712319876[] = {
/* columns rows colors chars-per-pixel */
"60 60 207 2 ",
"   c None",
".  c #6B7B21",
"X  c #77772C",
"o  c #237D4B",
"O  c #197660",
"+  c #BF272D",
"@  c #C1262C",
"#  c #C82D33",
"$  c #CD3236",
"%  c #D3373A",
"&  c #BA583E",
"*  c #84732A",
"=  c #976C31",
"-  c #8C6C2C",
";  c #A66836",
":  c #A86737",
">  c #B7623C",
",  c #84521F",
"<  c #D7453A",
"1  c #C36939",
"2  c #E47828",
"3  c #E96A37",
"4  c #F26B3C",
"5  c #F07438",
"6  c #DC3E41",
"7  c #DE4143",
"8  c #D74848",
"9  c #DB4949",
"0  c #D34946",
"q  c #D85848",
"w  c #CB5459",
"e  c #D1585D",
"r  c #C75C42",
"t  c #E34B4C",
"y  c #EC4D4E",
"u  c #E44447",
"i  c #F04F4F",
"p  c #EB524E",
"a  c #E95749",
"s  c #EF4F51",
"d  c #F24F51",
"f  c #EF5050",
"g  c #EE5E5E",
"h  c #F05050",
"j  c #F15C48",
"k  c #D16C4B",
"l  c #C7756D",
"z  c #E66C6D",
"x  c #EE7173",
"c  c #358C0E",
"v  c #398C0F",
"b  c #3A8D11",
"n  c #348B13",
"m  c #3D9216",
"M  c #2C8528",
"N  c #298232",
"B  c #458812",
"V  c #528217",
"C  c #4C9C1D",
"Z  c #439617",
"A  c #50940D",
"S  c #739614",
"D  c #509F20",
"F  c #569E38",
"G  c #448932",
"H  c #5AA727",
"J  c #5CA03E",
"K  c #62AD2D",
"L  c #6EB433",
"P  c #75BA39",
"I  c #77AA31",
"U  c #7DC13F",
"Y  c #669D42",
"T  c #60AA73",
"R  c #7FC342",
"E  c #818416",
"W  c #97A90B",
"Q  c #B2B532",
"!  c #DF841A",
"~  c #DF8317",
"^  c #D7921B",
"/  c #E1861B",
"(  c #E5891C",
")  c #EC8D1D",
"_  c #E38E17",
"`  c #F18D1D",
"'  c #EB9814",
"]  c #F7931E",
"[  c #F8941D",
"{  c #F89B1A",
"}  c #F99F17",
"|  c #DABA05",
" . c #C7B505",
".. c #F8AC0E",
"X. c #FCB40C",
"o. c #FDBA08",
"O. c #FDBB07",
"+. c #FAA614",
"@. c #F1AA15",
"#. c #DF8922",
"$. c #DF9F27",
"%. c #E18826",
"&. c #F48529",
"*. c #F79120",
"=. c #E09135",
"-. c #EA9A23",
";. c #D3A32D",
":. c #C8AA2F",
">. c #F3A129",
",. c #95C53A",
"<. c #A9C731",
"1. c #FFC402",
"2. c #F5C406",
"3. c #EAC612",
"4. c #F8CB34",
"5. c #C0C727",
"6. c #B68948",
"7. c #98B849",
"8. c #A3A948",
"9. c #BA8968",
"0. c #E29D49",
"q. c #E1A258",
"w. c #E2AA68",
"e. c #E2B37B",
"r. c #DE9D70",
"t. c #84C544",
"y. c #87C946",
"u. c #89C947",
"i. c #8BCA48",
"p. c #8AC646",
"a. c #94C645",
"s. c #9BD14E",
"d. c #8DC658",
"f. c #90CA52",
"g. c #ACD753",
"h. c #B3DB55",
"j. c #BFC645",
"k. c #BEE058",
"l. c #9ACA60",
"z. c #9DD06B",
"x. c #A7D271",
"c. c #CFC84D",
"v. c #CED753",
"b. c #C6E35D",
"n. c #D3E861",
"m. c #CDE57C",
"M. c #F0D074",
"N. c #045C89",
"B. c #096A8C",
"V. c #046191",
"C. c #046699",
"Z. c #0A6894",
"A. c #106894",
"S. c #157096",
"D. c #1170A1",
"F. c #167DAB",
"G. c #0F6FA2",
"H. c #2F7987",
"J. c #74BC96",
"K. c #599DBD",
"L. c #7BC1A4",
"P. c #46BEDF",
"I. c #5DA5C7",
"U. c #63AFD3",
"Y. c #7BB8D4",
"T. c #47C1E1",
"R. c #48C1E1",
"E. c #73CAE6",
"W. c #77D1ED",
"Q. c #96BA8A",
"!. c #A899A6",
"~. c #E3BA8B",
"^. c #EAACAE",
"/. c #EB9B9D",
"(. c #91C293",
"). c #B0D48F",
"_. c #B9D3AE",
"`. c #E3C19A",
"'. c #C0D6BB",
"]. c #E6D5BA",
"[. c #E4CBAD",
"{. c #CCE0BE",
"}. c #D8E980",
"|. c #E9BCC0",
" X c #8EC5D5",
".X c #B6D8D4",
"XX c #89CAE6",
"oX c #91C8E0",
"OX c #99D2EB",
"+X c #91D9F5",
"@X c #A4DEF7",
"#X c #A2DFF9",
"$X c #A4E1FB",
"%X c #CAD3D9",
"&X c #D2D4D7",
"*X c #D3D2CC",
"=X c #E6D5CD",
"-X c #E5E3DE",
";X c #E5DFE3",
":X c #DDE4E1",
">X c #E4E5E4",
",X c #E3E8E5",
"<X c #E4E5EA",
"1X c #E6E9ED",
"2X c #E6EAF0",
"3X c #E9EBF1",
"4X c #D9E5D6",
/* pixels */
"                                                                                                                        ",
"                                                                                                                        ",
"                                                                                                                        ",
"            N.N.V.C.C.C.C.C.                                                                                            ",
"            N.N.V.C.C.C.C.C.                                                                                            ",
"            N.N.V.C.C.C.C.C.                                                                                            ",
"            N.N.V.C.C.C.C.C.                                                                                            ",
"            N.N.V.C.C.C.C.C.                                                                                            ",
"            N.D.F.F.F.F.F.G.                                                                                            ",
"              P.P.P.P.P.P.                                                                                              ",
"              P.R.R.R.R.R.                                                                                              ",
"              P.R.R.R.R.T.                                                                                              ",
"            XXE.E.W.W.W.W.+X                                                                                            ",
"        oXoXoXOX@X$X#X@X$X#X#X#X                                                                                        ",
"      oXoXoXoX#X$X#X#X#X#X#X#X#X$X                                                                                      ",
"      oXoXoXOX$X#X#X#X#X#X#X#X#X#X                                f                                                     ",
"      oXoXoXOX#X#X#X#X#X#X#X$X$X#X                              h h f                                                   ",
"      oXoXoXOX#X$X$X$X$X$X$X$X$X$X                            f t y f                                                   ",
"      K.K.K.I.U.U.U.U.U.U.U.U.U.U.                          f t # $ y d     i.i.u.y.i.                                  ",
"      N.N.N.V.C.C.C.C.C.C.C.C.C.C.            v v v v     p h % @ 6 d g 8.y.y.i.u.i.i.                                  ",
"      V.N.N.V.C.C.C.C.C.C.C.C.C.C.o c c c c c c c n c B q d d y 6 s s 6.y.i.i.i.u.u.y.i.                                ",
"      N.N.O V.C.C.C.C.C.C.C.C.C.O n c c v v c v c c c v : d y u # # r 7.u.y.s.g.i.u.i.y.                                ",
"      N.N.V.V.C.C.C.C.C.C.C.C.C.N v n H L L D v c c c c . r y u $ $ 6.y.i.s.b.n.s.u.u.                                  ",
"      N.N.N.V.C.C.C.C.C.C.C.C.B.M n H y.t.t.t.Z c c c c c B - < t y 7.y.s.b.n.g.i.i.,.3.1.1.1.                          ",
"      N.N.N.V.C.C.C.C.C.C.C.C.B.M v P t.C C H Z D H C b v c c , < 5 ;.Q v.n.g.i.R ,.3.1.1.1.1.1.                        ",
"      N.N.N.V.C.C.C.C.C.C.C.Z.N v v K K b c b K p.p.y.H v c v S &.[ [ [ -.c.i.i.U <.2.2.1.1.1.1.1.                      ",
"      N.N.N.V.C.C.C.C.C.C.C.O v c v v v c c b P P H U L c c V ^ [ *.*.[ [ $.,.H m Z S  .1.1.1.1.1.                      ",
"      N.N.N.N.C.C.C.C.C.C.C.M v c c c b b v n C Z v Z Z c c S ] ] ] [ [ [ [ S n c c c A | 1.1.1.3.                      ",
"      N.N.N.V.C.C.C.C.C.C.B.M b c D L P P K C b = : ; ; : : 1 4 4 4 4 4 4 4 > - B c c c W 1.2.5.,.u.u.u.i.              ",
"      N.N.N.V.C.C.C.C.C.C.S.G c b P i.i.i.i.R I q d u u u d d d f f s t u u d a V c c c A W <.t.i.u.u.u.i.              ",
"      A.A.A.A.D.D.D.D.C.H.Q | A n R i.y.i.u.u.a.k d # + $ s d f f f p % @ # y q B c c c c c C R i.g.i.i.i.              ",
"      Y.Y.Y.E.XXXXXXXXoXc.1.1.| W ,.i.i.h.h.i.i.k d u % 7 7 y h h y 7 u % 7 h > m c c c c c c L b.b.s.u.u.              ",
"      oXoXoXOX$X$X$X$X.X2.1.1.1.1.<.i.u.k.n.h.y.8.a y y $ @ 7 u 6 7 @ $ i i y X c c c c c c c L n.h.i.u.y.              ",
"      oXoXoXOX#X#X#X@X_.4.4.4.4.4.c.z.z.x.m.m.m.z.r.x z w e z e w z e w z x l J J J J J J J F l.m.z.z.z.).              ",
"      oXoXoXOX#X#X@X%X%X*X*X,X-X>X,X:X,X-X,X,X,X>X>X;X;X;X;X>X;X;X>X;X;X>X;X>X-X-X:X:X-X:X:X-X-X:X,X,X,X,X1X            ",
"      oXoX XOX#X#X@X%X%X&X&X1X3X1X1X1X1X3X1X1X1X1X1X1X1X1X1X1X1X1X1X1X1X1X1X<X1X,X1X1X1X1X1X1X<X1X1X1X1X1X1X            ",
"      oXoXoXOX#X#X#X%X%X&X&X<X1X1X1X1X1X1X1X1X1X1X1X1X1X1X1X1X1X1X1X1X1X1X1X1X1X1X1X1X1X1X1X1X1X1X1X1X1X1X1X            ",
"      oXoXoXOX#X#X#X.X)._.&X<X1X1X1X1X1X1X1X1X1X1X1X1X1X1X1X1X1X1X1X1X1X1X1X1X1X1X1X1X1X1X1X1X1X1X1X1X1X1X              ",
"      oXoXoXOX#X#X#X.Xd.x.&X<X3X1X1X1X1X1X1X1X1X1X1X1X1X1X1X1X1X1X1X1X1X1X1X1X1X1X1X1X1X1X1X1X1X1X1X1X1X1X              ",
"      oXoX X XL.J.J.L.7.d.Q.Q.Q._.&X1X1X1X1X1X1X1X1X1X1X1X1X1X1X1X1X1X1X1X1X1X1X1X1X2X2X1X1X1X1X1X1X1X1X1X              ",
"      oXoXT m c b n b Z b v c c b F _.2X<X2X1X1X1X1X1X1X1X1X1X1X1X1X1X1X1X1X3X1X>X].~.e.[.:X2X2X2X2X2X4X).i.y.          ",
"      oX!.X b n c v c c c n c c v V 9.=X<X1X1X1X1X1X1X1X1X1X1X1X1X1X1X1X1X1X=X`.q.#.~ ~ ! e.<X2X3X:X_.l.u.i.i.i.        ",
"      l 9 8 & . c c c b c c c v = q p g ^.;X2X1X1X1X1X1X1X1X2X1X1X1X1X-X[.w.=.! ~ ~ ! ! _ %.].<X{.x.i.u.i.i.i.          ",
"    8 8 8 9 r B c b . > = V c c . p d y d /.<X1X1X1X1X1X1X1X2X2X,X].M.0.! ! ! ! / ( *.*.] ) e.).i.y.u.u.u.              ",
"  8 8 8 8 s r * - > a d d q ; * = p s f p g ^.3X1X1X1X1X2X1X=X`.q.@.1.' ! ! ( ( ` ] { *.] [ ;.y.u.u.u.u.            u.  ",
"  8 8 8 t f h h h d s s h h d p h f f f h f x >X1X1X1X-X].w.=.! ! @.1.@.( ) *.{ ] *.*.[ ] [ ;.p.u.u.u.  u.u.u.u.u.u.u.u.",
"8 8 8 9 y f f f f f h h f f d p d s f f h f h ^.1X=X~.0.#.! ! ! ~ ' 1.X.*.] ] ] { *.*.[ [ *.] ,.u.u.u.u.u.i.u.u.u.u.u.i.",
"8 8 8 9 s f f f f f d p s f f d p f f s s d a r.w.#.! ! ! ! ( ( ) ] ..+.[ ] ] ] ] *.[ [ *.*.-.Q i.u.u.u.u.u.u.u.u.      ",
"8 8 8 9 s f f f s p s f f h p h h i p p 4 &.%.~ ! ! ! / ( ` ] ] ] ] *.] ] ] ] [ ] ] ] ] ] ] [ Q i.i.u.u.                ",
"8 8 8 9 s f f f f f s f f f h p h a 3 2 X.1./ ~ ! ( ( [ [ *.*.[ ] ] ] [ ] ] ] ] [ ] ] ] ] ] [ :.i.p.u.u.u.              ",
"8 8 8 9 s f f s f f p f f d h j 2 2 ~ ! @.1.' ( ] ] ] *.[ *.*.] ] ] ] ] [ ] ] ] ] ] ] *.*.] ] ;.p.i.i.u.u.u.u.u.u.      ",
"8 8 8 8 t f f f f s s f s p a 2 / / ! / ' o.+.] ] ] ] *.*.{ [ ] ] ] ] ] *.] ] ] ] *.{ [ ] ] ] -.a.p.p.u.u.i.u.u.u.u.    ",
"  8 8 8 9 f f f f f f s f f 3 ! / / ( ] ] [ ] [ ] ] ] { ..+.[ *.] *.*.[ [ [ [ [ *.} o.+.[ *.*.[         u.u.u.u.u.      ",
"    8 8 8 t f f f f f f f s 2 ( ` ] [ ] [ ] ] ] ] ] ] +.1...[ [ ] [ [ [ { X...*.[ } 1.X.] *.{ [                         ",
"      8 8 8 t f s f f f f s 3 *.[ *.] ] ] ] ] ] ] ] *.{ 1.o.[ *.] ] *.*.{ o.o.{ ] { O.o.] ] [ *.                        ",
"        8 8 8 9 s f s f f s j &.[ [ [ ] ] ] ] ] ] ] ] ] o.o.{ *.] ] { *.*.X.1.{ ] ] o.2.{ [ [ *.                        ",
"              8 9 t y f f f f j &.*.*.*.*.*.[ [ *.[ [ *.o.1.{ *.] { *.*.[ ..1.+.*.*.X.1.{ *.                            ",
"                                                                                                                        ",
"                                                                                                                        ",
"                                                                                                                        "
};
