/* XPM */
static char *f26a3d85e3994659e87db1ba6a8ad1d3kqMdu9QlcV9Hjrz3[] = {
/* columns rows colors chars-per-pixel */
"60 60 201 2 ",
"   c None",
".  c #010101",
"X  c #080604",
"o  c #0C0905",
"O  c #07090A",
"+  c #0C0B0A",
"@  c #110D09",
"#  c #110D00",
"$  c #16120E",
"%  c #1B140E",
"&  c #1D1700",
"*  c #0D0F10",
"=  c #0E1011",
"-  c #121415",
";  c #1B1610",
":  c #1E1913",
">  c #181B1C",
",  c #241A09",
"<  c #221B15",
"1  c #261F18",
"2  c #291E16",
"3  c #2D241C",
"4  c #2B2017",
"5  c #31281E",
"6  c #38281B",
"7  c #3C3000",
"8  c #1B1F21",
"9  c #1D2224",
"0  c #252A2C",
"q  c #242829",
"w  c #342B22",
"e  c #392E22",
"r  c #3B3126",
"t  c #3E3328",
"y  c #2B2F31",
"u  c #2D3335",
"i  c #333A3C",
"p  c #33383A",
"a  c #4A3A00",
"s  c #442F1E",
"d  c #402F22",
"f  c #473525",
"g  c #4B3523",
"h  c #42372B",
"j  c #473B2E",
"k  c #4A3B2D",
"l  c #4B3827",
"z  c #523D2B",
"x  c #4B3E30",
"c  c #5D4900",
"v  c #574400",
"b  c #634F00",
"n  c #685300",
"m  c #7B6100",
"M  c #534435",
"N  c #5C4531",
"B  c #5D4D3C",
"V  c #56402E",
"C  c #684C35",
"Z  c #724E32",
"A  c #67513C",
"S  c #74563C",
"D  c #62432B",
"F  c #323C40",
"G  c #444E51",
"H  c #4C5659",
"J  c #4B5355",
"K  c #51595C",
"L  c #454C4F",
"P  c #665442",
"I  c #6C5945",
"U  c #6F5C48",
"Y  c #695744",
"T  c #725F4A",
"R  c #7F5E42",
"E  c #76624C",
"W  c #7A654F",
"Q  c #7F6952",
"!  c #4E5E64",
"~  c #575F62",
"^  c #576468",
"/  c #5A6C73",
"(  c #646F72",
")  c #69777C",
"_  c #626C6F",
"`  c #836800",
"'  c #815939",
"]  c #8B5F3D",
"[  c #8F633F",
"{  c #886548",
"}  c #966946",
"|  c #856E56",
" . c #8A7259",
".. c #877057",
"X. c #997657",
"o. c #AE7A4F",
"O. c #987E62",
"+. c #BE9700",
"@. c #C49B00",
"#. c #CDA200",
"$. c #DFB100",
"%. c #D6AA00",
"&. c #EABA00",
"*. c #E4B500",
"=. c #F1BF00",
"-. c #FAC600",
";. c #FDC900",
":. c #F3C100",
">. c #AF825C",
",. c #B0835D",
"<. c #9D8266",
"1. c #A6896B",
"2. c #AB8D6E",
"3. c #A18568",
"4. c #B88C67",
"5. c #AD8F70",
"6. c #AF9171",
"7. c #B39373",
"8. c #BD9C7A",
"9. c #BA9876",
"0. c #CE8D5A",
"q. c #C59369",
"w. c #D69B6B",
"e. c #D79F71",
"r. c #C3A27E",
"t. c #C9A27D",
"y. c #D9A476",
"u. c #E8A26A",
"i. c #F5A96D",
"p. c #F1A66B",
"a. c #E5AA79",
"s. c #FAAE71",
"d. c #F5AE74",
"f. c #EEB17D",
"g. c #F3B37E",
"h. c #FDB47A",
"j. c #727E81",
"k. c #667A82",
"l. c #7B898D",
"z. c #7A8B90",
"x. c #7C949D",
"c. c #818E92",
"v. c #89979B",
"b. c #989183",
"n. c #859FA9",
"m. c #94A4A8",
"M. c #9BAEB4",
"N. c #96B2BD",
"B. c #8CA2AA",
"V. c #A4B5BB",
"C. c #A8B9BE",
"Z. c #A7B8BE",
"A. c #CDAA84",
"S. c #C8A681",
"D. c #D3AF88",
"F. c #D1AC87",
"G. c #D5B08A",
"H. c #DBB58D",
"J. c #DEB88F",
"K. c #DFB990",
"L. c #FCBB84",
"P. c #F9BA85",
"I. c #E3BC93",
"U. c #EBBF94",
"Y. c #E0B68D",
"T. c #FFC28C",
"R. c #E9C096",
"E. c #EDC499",
"W. c #F1C79C",
"Q. c #F5CB9E",
"!. c #FCCC9C",
"~. c #FFC793",
"^. c #F9CEA1",
"/. c #FED3A4",
"(. c #FFD8A8",
"). c #9AB8C3",
"_. c #ACBDC3",
"`. c #A2B9C1",
"'. c #A1C1CD",
"]. c #B4C6CB",
"[. c #B8CBD1",
"{. c #AFD1DE",
"}. c #B9D2DB",
"|. c #ABCCD9",
" X c #B8DCEA",
".X c #BDE2F0",
"XX c #C3D7DD",
"oX c #C4D9DF",
"OX c #C7DCE3",
"+X c #CCE1E7",
"@X c #C8EFFE",
"#X c #C6EBF9",
"$X c #D5ECF3",
"%X c #D8EEF5",
"&X c #CBF2FF",
"*X c #DEF5FC",
"=X c #D7F5FE",
"-X c #D2E8EE",
";X c #E0F7FE",
":X c #E2FAFF",
">X c #E4E9DE",
/* pixels */
"                                                                                                                        ",
"                              . .                                                     . .                               ",
"                            . . . .                                                 . . . .                             ",
"                          . . . . . .                                             . . . . . .                           ",
"                          . . . . . . .                                         . . . . . . .                           ",
"                              . .                                                     . .                               ",
"                              . .                                                     . .                               ",
"                              . .                                                     . .                               ",
"          . . .               . .           . . . . . a     . . . . . .               . .               . . .           ",
"        . X , . .             . .         . & c c c n #.;.&.m b b v , . .             . .             . . , X .         ",
"      . X ' w.S . .           . .         . c &.&.&.-.-.-.-.;.-.-.-.$.m X .           . .           . . Z w.' X .       ",
"    . X ' i.L.P.S . .         . .         . c &.&.&.-.-.-.-.-.-.-.-.;.-.m . .         . .         . . Z p.s.P.{ X .     ",
"  . X ' i.h.L.L.P.S . .       . .         . c &.&.=.;.;.;.;.;.;.;.;.;.;.$., .         . .       . . Z p.s.L.L.L.{ X .   ",
". X ' p.h.L.L.L.>.l X .       . .       . . c &.*.@.+.+.+.+.+.+.+.+.#.:.-.v . .       . .       . . g o.s.L.L.L.L.{ X . ",
". 6 u.s.L.L.L.e.f . .         . . . . . - . c %.c o X X X X X X X X # b *.b . - . . . . .         . . s 0.d.L.L.L.g.6 . ",
". o } i.L.T.w.< X .           . . . - ) n.O c m . e S I U U U U U U t . ` b + m.) - . . .           . X , 0.h.L.L.X.+ . ",
". . o } s.>.z . .             . . F ).&X'.+ a 7 $ e.T././././././.(.D.- a v + ].:X_.i . .             . . g o.s.X.@ . . ",
". % % o [ 6 . .             . . O N.&X&X`.+ X X < a.X.X.^././.^.X.O.I.< X o + _.:X:XV.O . .             . . 6 [ o ; ; . ",
". f ,.% . X .             . O > O ).&X$XK . 1 + < e.3 4 E.F.F.E.4 w G.< + 1 . K %X:XC.+ > + .             . X . : 5.j . ",
". f L.q.M X .           . X k.^ X N.*X].* h H.t : y.l j 8.< j R.j M H.: t H.h * ].:XC.X ^ j.X .           . X z q.!.j . ",
". f P.T.U.3 .         . . ^ #X/ X V.:X_.O B Q.h % a.a.Y.I . M ^.K.I.I.: h Q.B O _.:XC.X ( %X^ . .         . 4 a.T.!.j . ",
". f P.T.Q.j .         . i  X&X/ X C.:X+Xu o P < < a.T./.r.e B ^././.I.< < P o u +X:XC.X _ :X+Xi .         . f P.T.Q.j . ",
". f P.T./.P .       . = N.&X&X/ X Z.:X:XV.y . . < a.T.t.1.H.H.1.S./.I.< . . y V.:X:XZ.. _ :X:XZ.- .       . C L.~.^.j . ",
". f P.T./....       . / @X@X&Xz.q [.:X*X:XOXM.p @ e.T.A . r r . I /.F.@ p M.OX:X*X:X[.q z.:X*X*X( .       . { T.~.^.j . ",
". f P.T./.2..     . > |.&X@X&X$XoX*X*X*X*X:X:Xl.. R L.y.B : : B G./.Q . l.:X:X*X*X*X*XoX$X;X*X:X}.> .     . o.T.!.^.j . ",
". f P.T./.S.+ .   . / &X@X&X=X*X$X$X*X:X;X*X:XXX0 o { a.U.G.D.E.I...o 0 XX:X*X;X:X*X$X$X*X:X:X*X:X( .   . o q.T./.^.j . ",
". f P.T./.5.+ . . . ^ {.&X{.z.G u p H v.+X:X*X:XV.q . < e r r e < . q V.:X*X:XOXv.H p u G z.XX:XoX^ . . . + >.!./.^.j . ",
". f P.L.| + X : 4 $ . 0 ) q . @ < < o . u V.:X:X:Xm.. $ 1 < < 1 $ . m.:X:X:XV.u . o < < @ . 0 ) 0 . $ 4 < X + | ^.^.j . ",
". f P.P.j w 1.K.R.D.Q @ . $ Q A.R.I.S.U o > j.c.c.J . O.R.I.I.R.O.. J c.c.j.> o U S.I.R.A.Q $ . @ Q D.R.I.1.w j W.^.j . ",
". f P.T.I.I./././././.3.h 7././././././.<.o . . . . $ G././././.G.$ . . . . o <././././././.7.h 3./././././.I.I./.^.j . ",
". f P.T././././././././.Q././././.W.E././.P . Y  .o t Q././././.Q.t o  .Y . P /./.E.W././././.Q./././././././././.^.j . ",
". f P.T././././././././././././.W.M w Y 1.... | /.Q 2././././././.2.Q /.| . ..1.Y w M W./././././././././././././.^.j . ",
". 6 g.T././././././././././././.Q.T < X . o . r 2.H.Q././././././.Q.H.2.r . o . X < T Q./././././././././././././.W.e . ",
". X R y.E./././././././././././././.I.9.| x < X . $ h 3././././.3.h % . X < x | 9.I.^././././././././././././.E.G.Q X . ",
"  . . % w B | 7.D.E././././.E.T 2././././.^.J.7.W h $ B ^.Q.Q.^.B $ h W 7.H.^././././.2.T E././././.E.D.7.| B w % . .   ",
"      . . . . X $ r G./.Q.H.8.o N !./././././././.Q.H.R.^.I I ^.R.H.Q././././././././.B o 8.F.2.Q M 3 $ X . . . .       ",
"              . . i ].>Xb.$ : . N L.!./././././././././.E.3 3 E./././././././././././.B . : + . . = 9 X .               ",
"              . * ).&X&X'.H 0 . N L.~./././././././././.E.3 3 E./././././././././././.B . 0 J j.m.[.V.= .               ",
"                . n.&X@X&X=X_.+ N L.T./././././././././.E.3 3 E./././././././././././.B + _.*X:X:X:Xm..                 ",
"                . / &X@X@X=X[.* N L.T./././././././././.E.3 3 E./././././././././././.B + [.:X*X*X:X( .                 ",
"                . u .X&X@X&X[.= V L.T./././././././././.E.3 3 E./././././././././././.M = [.:X*X;X-Xu .                 ",
"                . + N.&X@X&XOX8 6 g.T./././././././././.E.3 3 E././././././././././.W.e 9 OX:X*X:XV.+ .                 ",
"                  . ! @X@X@X#XL o q.T.!././././././././.E.3 3 E././././././././././.8.o G *X*X*X*X^ .                   ",
"                  . - '.&X@X&XB.. z g.~././././././././.E.3 3 E./././././././././.E.x . m.:X*X:X].- .                   ",
"                    . ! #X&X&X#XH . C a.!././././././.Q...o o ..Q./././././././.I.A . K $X;X*X*X^ .                     ",
"                    . + B.&X@X&X}.u . 3 { 9.A.A.A.A.9.B . . . . B 9.A.A.A.A.8...5 . u oX:X*X:XM.+ .                     ",
"                      . 0 |.&X@X=X) . . . X + + + + . . t ; ; t . . + + + + X . . . ) :X*X:XXXy .                       ",
"                        . G  X&X&XN.X j O.I B B B A T 5.I.5 5 I.5.T A B B B I O.j X V.:X*X*X~ . .                       ",
"                        . . ^ .X&X X9 5 E././././.E.G.G.r.1 1 r.G.G.E././././.E.5 q OX:X;X*XJ .                         ",
"                          . . ^  X&XH X r./././.6.w @ + + . . + + @ w 6./././.r.X K *X%X-X;X                            ",
"                            . . G {.x.. .././.A.; o g V z @ @ z N z @ ; A././.... v.XXH u                               ",
"                              . . 0 ) + x ^./.... ] i.h.f.3 3 f.L.L.} . ../.^.x + ) y . .                               ",
"                                  . X . : H./.E . o.i.g.a.3 3 a.P.L.4.. E /.H.: . X .                                   ",
"                                    . . X 2.(.E . g g f d o o d f f l . E (.2.X . .                                     ",
"                                        . I /.E . . @ % % X X % % $ . . E /.I .                                         ",
"                                        . w W.E . D 0.u.e.2 2 e.a.y.C . E W.w .                                         ",
"                                        . @ A.W . o.s.L.P.3 3 g.T.T.4.. W A.@ .                                         ",
"                                          . x w . g Z Z C @ @ C S S z . w x .                                           ",
"                                          . . . . . . . . . . . . . . . . . .                                           ",
"                                                                                                                        "
};
