/* XPM */
static char *_c06f3eb5e3940ffec968de2bfb75396icf6ktB9Vlb9uShO[] = {
/* columns rows colors chars-per-pixel */
"60 60 142 2 ",
"   c None",
".  c #010000",
"X  c #0D0504",
"o  c #0F0806",
"O  c #110706",
"+  c #140907",
"@  c #150B08",
"#  c #1B0C0A",
"$  c #240E0C",
"%  c #27110E",
"&  c #2B110E",
"*  c #2D1510",
"=  c #341712",
"-  c #3D1613",
";  c #341914",
":  c #3E1B16",
">  c #3F1F18",
",  c #411814",
"<  c #491816",
"1  c #421F18",
"2  c #4E1D19",
"3  c #511F1A",
"4  c #422019",
"5  c #4B241C",
"6  c #51271F",
"7  c #5A221D",
"8  c #5F2A22",
"9  c #662720",
"0  c #6A2320",
"q  c #612C23",
"w  c #6E2A23",
"e  c #722B24",
"r  c #792B25",
"t  c #653126",
"y  c #683327",
"u  c #693328",
"i  c #743329",
"p  c #7D3229",
"a  c #773A2D",
"s  c #7B3C2F",
"d  c #7E3D30",
"f  c #84322A",
"g  c #8B352C",
"h  c #81392E",
"j  c #90362D",
"k  c #9D342F",
"l  c #94382F",
"z  c #873C30",
"x  c #8E3F32",
"c  c #973930",
"v  c #9B3A30",
"b  c #A43E34",
"n  c #874233",
"m  c #954235",
"M  c #994537",
"N  c #9D4C3B",
"B  c #AF4237",
"V  c #A14F3D",
"C  c #AE4D3D",
"Z  c #B44439",
"A  c #BB473B",
"S  c #BF483C",
"D  c #B3503F",
"F  c #C24A3D",
"G  c #C84C3F",
"H  c #B55241",
"J  c #BE5443",
"K  c #B95A46",
"L  c #BE5C48",
"P  c #CC4D40",
"I  c #D24F42",
"U  c #C15644",
"Y  c #C25846",
"T  c #C25E49",
"R  c #D35042",
"E  c #D35E4A",
"W  c #C5604B",
"Q  c #CA624C",
"!  c #CC634D",
"~  c #CE644E",
"^  c #CA624D",
"/  c #D8604C",
"(  c #D9604D",
")  c #DA614D",
"_  c #DB614D",
"`  c #D9624D",
"'  c #DA624E",
"]  c #DC624E",
"[  c #DD624E",
"{  c #DE624E",
"}  c #DF634F",
"|  c #DF644F",
" . c #DD624E",
".. c #DF6450",
"X. c #D76851",
"o. c #E0634F",
"O. c #E1644F",
"+. c #E0634F",
"@. c #E16550",
"#. c #E26450",
"$. c #E16751",
"%. c #E26651",
"&. c #E46550",
"*. c #E46551",
"=. c #E16651",
"-. c #E06953",
";. c #E36852",
":. c #E56853",
">. c #E06D55",
",. c #E36E56",
"<. c #E66C55",
"1. c #E76D55",
"2. c #E46D56",
"3. c #E46F56",
"4. c #E46F57",
"5. c #E56F57",
"6. c #E66F57",
"7. c #E56E57",
"8. c #E96E56",
"9. c #E67057",
"0. c #E77058",
"q. c #E77058",
"w. c #E87058",
"e. c #E97058",
"r. c #E87158",
"t. c #E97158",
"y. c #EA7058",
"u. c #EB7158",
"i. c #EA7259",
"p. c #EB7259",
"a. c #EC7259",
"s. c #ED7259",
"d. c #ED735A",
"f. c #EE735A",
"g. c #EE745A",
"h. c #EF745A",
"j. c #EF745B",
"k. c #EB7259",
"l. c #F0745B",
"z. c #F1755B",
"x. c #F3765C",
"c. c #F1755B",
/* pixels */
"  . . . . . . . . . . . .       . . . . . . . . . . . . . . . . . . . . . . . . . . . .       . . . . . . . . . . . .   ",
". O : : : : : 1 4 4 4 1 + @ A 7 . * : : : : 1 4 1 1 > > > > > 4 4 4 4 4 1 1 1 1 4 4 ; . 7 A # + : : : : : 1 4 4 4 > + . ",
". : E / / / / 2.9.9.9.,.5 X B 2 X C / / / / -.9.2.2.2.2.2.2.2.2.9.9.9.9.2.2.2.2.2.y.K X 2 B X 1 E / / / / 2.2.2.9.,.> . ",
". : / { { { | y.y.y.d.y.5 X B 2 X H o.{ { { 2.d.y.y.y.y.y.y.y.y.y.y.y.y.y.y.y.y.y.d.L X 2 B X 1 / { { { ..y.y.y.d.9.4 . ",
". : / { { { | y.y.y.y.y.5 X B 2 X D o.{ { { 2.y.y.y.y.y.y.y.y.y.y.y.y.y.y.y.y.y.y.d.L X 2 B X 1 / { { { | y.y.y.y.2.4 . ",
"X i { { { { | y.y.y.y.y.5 X B 2 X D o.{ { { 2.y.y.y.y.y.y.y.y.y.y.d.y.y.y.y.y.y.y.d.L X 2 B X 1 / { { { | y.y.y.y.2.4 . ",
"  / { { { { | y.y.y.y.y.5 X B 2 X D o.{ { { 2.y.y.y.y.y.y.y.y.y.y.y.y.y.y.y.y.y.y.d.L X 2 B X 1 / { { { | y.y.y.y.2.4 . ",
"  { { { { { | y.y.y.y.y.5 X B 2 X D o.{ { { 2.y.y.y.y.y.y.y.y.y.y.y.y.y.y.y.y.y.y.d.L X 2 B X 1 / { { { | y.y.y.y.2.4 . ",
"# z { { { { | y.y.y.y.y.5 X B 2 X D o.{ { { 2.d.y.y.y.y.y.y.y.y.y.y.y.y.y.y.y.y.y.d.L X 2 B X 1 / { { { O.y.d.y.y.2.4 . ",
". : / { { { | y.y.y.y.y.5 X B 2 X D o.{ { { 2.d.d.y.y.y.y.y.y.y.d.d.y.y.y.y.y.y.y.d.L X 2 B X 1 / { { { | y.y.y.y.2.4 . ",
". : / { { { { e.y.y.y.y.5 X B 2 X D o.{ { { 2.d.y.y.y.y.y.y.y.y.d.d.d.d.y.y.y.y.y.d.L X 2 B X 1 / { { { O.y.d.d.y.9.4 . ",
". : / { { { #.y.d.d.d.y.5 X B 2 X H #.{ { { 1.d.d.d.d.d.d.d.d.d.d.d.d.d.d.d.d.d.d.z.T X 2 B X 4 { { { { #.d.d.d.d.0.4 . ",
". @ 8 8 8 8 q t t t t t # @ Z 7 . 5 q 8 q q q t t t t t t t t t t t t t t t t t t t 6 . 7 Z + # 8 8 8 8 q t t t t t # . ",
"X X . . . . . . . . . . X 9 P v $ . . . . . . . . . . . . . . . . . . . . . . . . . . $ v P 9 X . . . . . . . . . . X X ",
"  k j j j j j c c c c c b G P P Z c c c c c c c c c c v b v v v v c c c c c c c c c c Z P P G b c c c c c c c c c c b   ",
"  < - - - - - - , , , , : - - - : , , , , , , , , , , < g I I g < , , , , , , , , , , : - - - : , , , , , , , , , , 2   ",
". . + + @ @ @ @ @ @ @ @ @ @ @ @ @ @ @ @ @ @ @ @ @ @ @ X O B B O . + + + + + @ @ @ @ @ @ @ @ @ @ @ @ @ @ @ @ @ @ @ @ . . ",
". = H J U U U Q Q Q Q Q Q Q Q Q Q Q Q Q Q Q Q Q Q Q ~ u . j j . q U J J J Y Q Q Q Q Q Q Q Q Q Q Q Q Q Q Q ! ~ ~ Q T ; . ",
". : / { { { #.y.d.d.d.d.d.d.d.d.d.d.d.d.d.d.d.d.d.d.z.s . j j . i #.{ { { -.d.d.d.d.d.d.d.d.d.d.d.d.d.d.d.d.d.d.d.y.4 . ",
". : / { { { | y.y.y.y.y.y.y.y.y.y.y.y.y.y.y.y.y.y.y.d.s . j j . i o.{ { { #.y.y.y.y.y.y.y.y.y.d.y.y.y.y.y.y.y.y.y.2.4 . ",
". : / { { { | y.y.y.y.y.y.d.y.y.y.y.y.y.y.y.d.y.y.y.d.s . g j . i o.{ { { -.y.y.y.y.y.y.y.y.y.y.y.y.y.y.y.y.y.y.y.2.4 . ",
". : / { { { | y.y.y.y.y.y.y.y.y.y.y.y.y.y.y.y.y.y.y.d.s . j j . i o.{ { { #.y.y.y.y.y.y.y.y.y.y.y.y.y.y.y.y.y.y.y.2.4 . ",
". : / { { { | y.y.y.y.y.y.d.y.y.y.y.y.y.y.y.y.y.y.y.d.s . j j . i o.{ { { -.y.y.y.y.y.y.y.y.y.y.y.y.y.y.y.y.y.y.y.2.4 . ",
". : / { { { | y.y.y.y.y.y.y.y.y.y.y.y.y.y.y.y.y.y.y.d.s . j j . i O.{ { { -.y.y.y.y.y.y.y.y.y.y.y.y.y.y.y.y.y.y.y.2.4 . ",
". : / { { { | y.y.y.y.y.y.y.y.y.y.y.y.y.y.y.y.y.y.y.d.s . j j . i o.{ { { #.y.y.y.y.y.y.y.y.y.y.y.y.y.y.y.y.y.y.y.2.4 . ",
". : / { { { | y.y.y.y.y.y.y.y.y.y.y.y.y.y.y.y.y.y.y.d.s . j j . i o.{ { { #.y.y.y.y.y.y.y.y.y.y.y.y.y.y.y.y.d.y.y.2.4 . ",
". : / O.O.O.#.d.d.d.d.d.d.d.d.d.d.d.d.d.d.d.d.d.d.d.x.s . j j . i &.O.O.o.:.d.d.d.d.d.d.d.d.d.d.d.d.d.d.d.d.z.d.d.y.4 . ",
". % x m m m m N N N N N N N N N N N N N N N N N N N V 6 . l l . 5 m m m m M N N N N N M N N N N N N N N N N N N N M * . ",
". . . . . . . . . . . . . . . . . . . . . . . . . . . . $ Z Z $ . . . . . . . . . . . . . . . . . . . . . . . . . . . . ",
"  r 0 0 0 0 0 e e e e e e e w w e e e e e e e e e e e r B I I B r e e e w w e e e e e e w w e e e e e e e e e e e e p   ",
"  r 0 0 0 0 0 e e e e e f A R P c e e e e e e e e e e e e w w e e e e g P R Z r e e e c P R A f e e e e e e e e e e p   ",
". . . . . . . . . . . . . < G f X . . . . . . . . . . . . . . . . . . # U &.h . . . . X f G < . . . . . . . . . . . . . ",
". % m m m m m N N N N N = O Z 6 . i m m m m M N M M N N N N N N N N N K 0.d.X.V N V d . 3 Z O * m m m m m N N N N M * . ",
". : / O.O.O.#.d.d.d.d.d.5 X B 2 X H #.O.O.O.1.d.d.d.d.d.d.d.z.d.d.d.d.d.y.d.d.d.d.x.T X 2 B X 5 { O.O.O.#.d.d.d.d.y.4 . ",
". : / { { { | y.y.y.y.y.5 X B 2 X D o.{ { { 2.y.y.y.d.d.y.y.y.y.y.y.y.y.y.d.y.y.y.d.L X 2 B X 1 / { { { | y.y.y.y.2.4 . ",
". : / { { { | y.y.y.y.y.5 X B 2 X D o.{ { { 2.y.y.y.y.y.y.y.y.y.y.y.y.y.y.y.y.y.y.d.L X 2 B X 1 / { { { | y.y.y.y.2.4 . ",
". : / { { { | y.y.y.y.y.5 X B 2 X D o.{ { { 2.y.y.y.y.y.y.y.y.y.y.y.y.y.y.y.y.y.d.d.L X 2 B X 1 / { { { | y.y.y.y.9.4 . ",
". : / { { { | y.y.y.y.y.5 X B 2 X D o.{ { { 2.y.y.y.y.y.y.y.y.y.y.y.y.y.y.y.y.y.y.d.L X 2 B O 1 / { { { | y.y.y.y.9.4 . ",
". : / { { { | y.y.y.y.y.5 X B 2 X D o.{ { { 2.y.y.y.y.y.y.y.y.y.y.d.y.y.y.y.y.y.y.d.L X 2 B O 1 / { { { | y.y.y.y.2.4 . ",
". : / { { { | y.y.y.y.y.5 X B 2 X D o.{ { { 2.y.y.y.y.y.y.y.d.d.y.d.y.y.y.y.y.y.y.d.L X 2 B X 1 / { { { | y.y.y.y.2.4 . ",
". : / { { { o.e.y.y.y.y.5 X B 2 X D o.{ { { 2.y.y.y.y.y.y.y.y.y.y.y.y.y.y.d.d.d.y.d.L X 2 B X 1 / { { { | y.y.y.y.2.4 . ",
". : / { { { #.y.d.d.d.y.5 X B 2 X H #.{ { { 1.d.d.d.d.d.d.d.d.d.d.d.d.d.d.d.d.d.d.z.T X 2 B X 4 { o.{ { #.y.d.d.d.0.4 . ",
". = H J J J U Q Q Q Q Q > O B 2 X M U J J J T Q Q Q Q Q Q Q Q Q Q Q Q Q ! ! ! ! ! ! V X 2 B O : J U U U U Q Q Q Q W ; . ",
". . + + + + @ @ @ @ @ @ . & F e . O + + + + @ @ @ @ @ @ @ @ @ @ @ @ @ @ @ @ @ @ @ @ o . e F & . + + + + + @ @ @ @ @ . . ",
"  < - - - - - - , , , , 3 b R F w , , , , , , , , , , , - - - - , , , , , , , , , , , w F R b 3 , , , , , , , , , , 2   ",
"  k j j j j j c c c c c v v v v v c c c c c c c c c c v S P P S v c c c c c c c c c c v v v v v c c c c c c c c c c b   ",
"X X . . . . . . . . . . . . . . . . . . . . . . . . . X < F F < X . . . . . . . . . . . . . . . . . . . . . . . . . X X ",
". @ 8 8 q q q t t t t t t t t t t t t t t t y t y t t = . c c . * q q q q q t t t t t t t t t t t t t t t t t t t t # . ",
". : / { { { #.y.d.d.d.d.d.d.d.d.d.d.d.d.d.d.d.d.d.d.z.s . j j . i #.{ { { -.d.d.d.d.d.d.d.d.d.d.d.d.d.d.d.d.d.d.d.0.4 . ",
". : / { { { | y.y.y.y.y.y.y.y.y.y.y.y.y.y.y.y.y.y.y.d.s . j j . i o.{ { { #.y.y.y.y.y.y.y.y.y.y.y.y.y.y.y.y.y.y.y.2.4 . ",
". : / { { { | y.y.y.y.y.y.y.y.y.y.y.y.y.y.y.y.y.y.y.d.s . j j . i o.{ { { #.y.y.y.y.y.y.y.y.y.y.y.y.y.y.y.y.y.y.y.9.4 . ",
". : / { { { | y.y.d.y.y.y.y.y.y.y.y.y.y.y.y.y.y.y.y.d.s . j j . i o.{ { { #.y.y.y.d.y.y.y.y.y.y.y.y.y.y.y.y.y.y.y.9.4 . ",
". : / { { { | y.y.y.y.y.y.y.y.y.y.y.y.d.y.y.y.y.y.y.d.s . j j . i o.{ { { #.y.y.y.y.y.y.y.y.y.y.y.y.y.d.y.y.y.y.y.2.4 . ",
". : / { { { | y.y.y.y.y.y.y.y.y.y.y.y.y.y.y.y.y.y.y.d.s . j j . i O.{ { { #.y.y.y.y.y.y.y.y.y.y.y.y.y.y.y.y.y.y.y.2.4 . ",
". : / { { { | y.y.y.y.y.y.y.y.y.y.y.y.d.y.y.y.y.y.y.d.s . j j . i o.{ { { -.y.y.y.y.y.y.y.y.y.y.y.y.y.d.y.y.y.y.y.2.4 . ",
". : / { { { | y.y.y.y.y.y.y.y.y.y.y.y.y.y.y.y.y.y.y.d.s . j j . i o.{ { { -.y.y.y.y.y.y.y.y.y.y.y.y.y.y.y.y.y.y.y.2.4 . ",
". : / { { { | y.y.y.y.y.y.y.y.y.y.y.y.y.y.y.y.y.y.y.d.s . j j . i O.{ { { #.y.y.y.y.y.y.y.y.y.y.y.y.y.y.y.y.y.y.d.2.4 . ",
". : E / / { | y.y.2.2.2.2.2.2.2.9.9.9.9.2.2.2.2.2.2.y.a . j j . i / / / / | 2.2.2.2.9.2.2.2.2.2.9.9.9.0.2.2.2.2.2.,.> . ",
". O : : : i / 2.n 1 4 1 1 1 4 4 4 4 > > > 1 4 4 4 4 4 % . v v . # : : : : : 4 1 4 4 > > > > 4 4 4 4 4 4 1 1 1 4 4 > + . ",
"  . . . . X     @ . . . . . . . . . . . . . . . . . . . X     X . . . . . . . . . . . . . . . . . . . . . . . . . . .   "
};
