/* XPM */
static char *dcc03d2d7b5e4d15873db31c5f6a5545rcnUL5h4nFWUGYej[] = {
/* columns rows colors chars-per-pixel */
"60 60 172 2 ",
"   c None",
".  c #010101",
"X  c #090306",
"o  c #040708",
"O  c #0D0509",
"+  c #060A0B",
"@  c #090D0E",
"#  c #14090E",
"$  c #15070E",
"%  c #090F10",
"&  c #160A10",
"*  c #180A11",
"=  c #0B1314",
"-  c #0C1619",
";  c #0F1A1C",
":  c #121112",
">  c #101B1D",
",  c #1C1D1E",
"<  c #230E19",
"1  c #28101D",
"2  c #111E21",
"3  c #1F1E21",
"4  c #311424",
"5  c #371628",
"6  c #351C2A",
"7  c #281620",
"8  c #142225",
"9  c #162629",
"0  c #17282B",
"q  c #192A2D",
"w  c #1A2E31",
"e  c #1C3135",
"r  c #1F363A",
"t  c #232223",
"y  c #2D2B2F",
"u  c #2D2C30",
"i  c #21363A",
"p  c #21393D",
"a  c #333234",
"s  c #38383A",
"d  c #4A1F36",
"f  c #4A1F36",
"g  c #4E263C",
"h  c #512B3F",
"j  c #1D3243",
"k  c #233D42",
"l  c #243E53",
"z  c #5B2642",
"x  c #403F40",
"c  c #5E3249",
"v  c #642949",
"b  c #672B4B",
"n  c #722F53",
"m  c #6A3853",
"M  c #743055",
"N  c #7A335A",
"B  c #62344D",
"V  c #254146",
"C  c #284247",
"Z  c #27444A",
"A  c #29454B",
"S  c #2B494E",
"D  c #2C4C53",
"F  c #28455C",
"G  c #2F5259",
"H  c #2E5157",
"J  c #315157",
"K  c #31555C",
"L  c #325760",
"P  c #355C63",
"I  c #395E64",
"U  c #315571",
"Y  c #376067",
"T  c #376168",
"R  c #3A646C",
"E  c #3E6C75",
"W  c #3F6E79",
"Q  c #48474A",
"!  c #4C4B50",
"~  c #545253",
"^  c #416C73",
"/  c #42737B",
"(  c #48777F",
")  c #747378",
"_  c #80355D",
"`  c #883964",
"'  c #8F3B69",
"]  c #873863",
"[  c #933D6C",
"{  c #9B4674",
"}  c #8A496C",
"|  c #467B85",
" . c #4B7C85",
".. c #467B88",
"X. c #497F8A",
"o. c #447783",
"O. c #AF4980",
"+. c #B34A83",
"@. c #BB4E8A",
"#. c #807E89",
"$. c #BC6493",
"%. c #D3589B",
"&. c #D95A9F",
"*. c #C06696",
"=. c #DD5CA2",
"-. c #E15EA5",
";. c #D873A9",
":. c #E479B3",
">. c #4B828C",
",. c #50848E",
"<. c #4C8592",
"1. c #4E8A94",
"2. c #4F8A98",
"3. c #518690",
"4. c #528B95",
"5. c #528E9B",
"6. c #53929E",
"7. c #5A949E",
"8. c #4C84AF",
"9. c #5595A3",
"0. c #5798A5",
"q. c #5B9AA5",
"w. c #5A9DAA",
"e. c #5C97A2",
"r. c #4D85B1",
"t. c #5CA1AE",
"y. c #5EA5B2",
"u. c #62A2AD",
"i. c #64A5B1",
"p. c #61AAB7",
"a. c #62ACB9",
"s. c #69ADBA",
"d. c #6BB1BE",
"f. c #67B0BD",
"g. c #6EB6C3",
"h. c #6FB7C4",
"j. c #6DB7C5",
"k. c #6DB5C2",
"l. c #6FB8C5",
"z. c #6FB8C5",
"x. c #70B9C6",
"c. c #71BAC7",
"v. c #70B9C6",
"b. c #71BBC8",
"n. c #71BBC9",
"m. c #72BCC9",
"M. c #72BDCA",
"N. c #72BCC9",
"B. c #858489",
"V. c #949294",
"C. c #93919D",
"Z. c #888690",
"A. c #9997A1",
"S. c #ABA9AB",
"D. c #A6A4A9",
"F. c #B0AEBC",
"G. c #B6B4B8",
"H. c #BAB8C6",
"J. c #C1BEC1",
"K. c #CAC8CA",
"L. c #D6D3D6",
"P. c #D5D2E3",
"I. c #DFDCE8",
"U. c #E0DDEE",
"Y. c #E4E1F3",
"T. c #EBE8F4",
"R. c #F1EEF3",
"E. c #F4F1F5",
"W. c #F7F4F9",
"Q. c #F9F6F9",
"!. c #FCF9FC",
"~. c #ECE9EC",
/* pixels */
"                      . . .                                   . .                           . . .                       ",
"                      . . . . . .                             . . .                   . . . . . .                       ",
"                        . . . o . .                         . . ; .               . . . . . . .                         ",
"                        . X X = J w C                 .     . 9 3.- .     . .   . . 8 D = . X .                         ",
"                        . # h . k i.g.c.          . . . . . o ( c.k . . . . . . o D 5.p . g # .                         ",
"                          . } g . ^ n.g.p .     . = o . . + R g.c.C . @ o . . = / p.R . f ] .                           ",
"                          . B $.* 2 u.n. .@ . . 8  .> . e 3.l.c.h.A > ^ - . @  .h.9.; * +.v .                           ",
"                          . 6 ;.m . R n.c.E . . ( c.( / s.n.c.c.c.u.w.q.@ . ^ c.k.I . b %.5 .                           ",
"                          . & $.*.& q s.n.d.C q i.n.n.m.c.c.c.c.c.c.m.i.w C d.n.i.9 # @.@.# .                           ",
"                            . { :.g + 7.n.c.s.i.c.c.c.c.c.c.c.c.c.c.c.c.i.s.c.n.4.+ d =.[ .                             ",
"                            . B :.m .  .m.c.n.n.c.c.c.c.c.c.c.c.c.c.c.c.n.n.c.c.( . b =.v .                             ",
"                            . 7 c # .  .m.d.u.i.l.n.c.n.n.c.c.n.n.c.n.l.i.u.d.l./ . $ z 1 .                             ",
"                            . . . 8 J i.n.P % 2 S 4.h.e.5.h.h.5.q.h.4.S 2 % I k.9.S 8 . . .                             ",
"                            . . D i.c.c.c. .i 8 . + A > 9 s.s.9 > A + . 8 i  .a.p.p.q.A . .                             ",
"                            . @ e.m.c.c.c.c.g.i. .0 . @ ^ l.l.^ @ . 0  .i.g.g.p.p.p.a.4.@ .                             ",
"                            . % q.n.c.c.c.c.c.c.m.i.,.7.g.c.c.h.7.,.i.m.c.c.f.p.p.p.a.5.@ .                             ",
"                            . - u.n.c.c.c.c.c.c.c.c.m.n.c.c.c.c.n.m.c.c.c.h.a.p.p.p.p.6.= .                             ",
"                            . w d.c.c.d.i.l.c.c.c.c.c.m.m.m.m.m.m.c.c.c.c.d.p.0.y.p.p.t.q .                             ",
"                          . . ^ n.n.i.C 8 w.n.c.c.c.i.>. . . . .>.i.c.c.h.a.6.2 k 0.p.a.R . .                           ",
"                        . . C s.n.s.k . k i.m.m.m.e.9 . . . . . . 9 e.m.k.a.w.r . p t.a.t.k . .                         ",
"                      . % K i.c.c.R . k s.c.7.R P w . j F F F F j . w P R 1.p.w.p . I p.p.w.D @ .                       ",
"                    . o ^ c.c.c.i.> - q.c.^ % . o . . U r.8.8.r.U . . o . @ R p.5.= ; q.p.p.p.R o .                     ",
"                    . . >  .c.c.s.S ^ m.3.+ t V.G.V.: - l l l l - : V.G.V.t + ..a.R V w.p.p./ ; . .                     ",
"                      . . = 7.n.c.g.l.c.D o S.!.!.Q.B.: . . . . : B.Q.!.!.A.o Z p.p.y.p.a.1.% . .                       ",
"                      . . 8 q.n.c.c.c.g.p : L.!.Q.Q.E.H.C., , D.K.E.Q.Q.T.H.: r p.p.p.p.a.5.8 . .                       ",
"                      . q w.c.c.c.c.c.c.J . D.!.Q.Q.E.Y.F.: : K.!.Q.Q.R.Y.C.. D p.p.p.p.p.p.6.9 .                       ",
"                    . +  .g.c.n.c.c.c.n.4.. ! R.Q.Q.T.H.s . . k K.W.T.U.P.Q . X.a.p.p.p.a.p.p./ o .                     ",
"                  . . o q e D 3.h.c.c.c.k.i @ G.!.I.Z., . z z . , Z.P.Y.D.@ r y.p.p.p.p...A w 9 o . .                   ",
"                . . . . @ . . > i.c.c.c.m.^ . a B.! . & N %.%._ & . ! #.a . R a.p.p.p.9.; . . @ . . . .                 ",
"            . . - G k T D . - ^ g.c.c.c.m.3.o . . . 5 +.=.=.=.-.+.5 . . . .  .a.p.p.p.y.R = . D T k G - . .             ",
"            . 9 X.9.9.<.; = 4.m.n.c.c.c.n.u.= < z . n -.=.=.=.=.-.n . z < = 6.p.p.p.p.a.a.X.= > <.9.9.| 8 .             ",
"          . ; 1.p.w.9.R . 9 I R 7.c.c.c.m.s.0 < [ . z -.=.=.=.=.=.z . [ < 8 t.a.p.p.p.<.L K 8 . R 9.9.9.o.- .           ",
"        . . R a.p.t.9.D . . . . k h.n.i.( k + O [ f ` =.=.=.=.=.=.` f [ O + p E 0.a.p.p . . . . D 9.9.9.9.L . .         ",
"        . 8 w.p.p.w.9.K @ k r . R s.R 2 . . @ . [ &.=.=.=.=.=.=.=.=.&.[ . @ . . > I t.L . r k @ K 9.9.9.9.1.2 .         ",
"        . H a.p.p.y.9.2.| 6.p + ^ i . = Z / D . ' -.-.=.=.=.=.=.=.-.-.' . D / Z = . e R o k 6.| 2.9.9.9.9.9.S .         ",
"        . / a.p.p.p.t.9.9.5.8 . = . r | 9.9.A . { O.O.=.=.=.=.=.=.O.O.{ . A 9.9.| r . % . 8 5.9.9.t.t.9.9.9.R .         ",
"      . . X.a.p.p.p.p.y.9.<.- . . D 5.9.9.6.w . N 4 4 %.-.-.-.-.%.4 4 N . w 6.9.9.5.D . . - <.9.y.p.y.9.9.9.W . .       ",
"      . . ..a.p.p.p.p.p.9.X.% . D 9.9.w.9.<.; . X X O v M M M M v O X X . ; <.9.w.9.9.D . % X.9.p.p.y.9.9.9.E . .       ",
"        . E a.p.p.p.p.p.9.<.2 e 5.9.t.p.9.X.@ t s @ . . . . . . . o @ a 3 @ X.9.p.t.9.5.e 2 <.9.p.p.y.9.9.9.I .         ",
"        . K a.p.p.p.p.p.w.9.X.<.9.L Z w.0.<.= a L.J.S.S.S.S.S.S.S.S.F.H.y = <.0.w.Z L 9.<.X.9.w.p.p.t.9.9.9.D .         ",
"        . R a.p.p.p.p.p.y.w.9.9.6.2 - 0.w.9.k . ) ~.!.!.!.!.!.!.!.W.P.) . k 9.w.0.- 2 6.9.9.w.y.p.p.y.9.9.9.L .         ",
"      . - 6.p.p.p.p.p.p.p.p.y.p.E . V p.y.9...> . a ~ ~ ~ ~ ~ ~ ~ ! u . > ..9.y.p.V . E p.y.p.p.p.p.p.w.9.9.X.= .       ",
"      . D p.p.p.p.p.p.p.p.p.a.>.- @ >.a.p.w.9...p = + + + + + + + + = p ..9.w.p.a.>.@ - >.a.p.p.p.p.p.t.9.9.9.S .       ",
"    . + >.a.p.p.p.p.p.p.a.t.E - . R p.p.p.p.w.9.9.<.................<.9.9.w.p.p.p.p.R . - E t.a.p.p.p.p.9.9.9.2./       ",
"    . q t.p.p.p.p.p.p.w.R q . o R p.p.p.p.p.p.t.w.9.9.9.9.9.9.9.9.9.9.0.y.p.p.p.p.p.p.R o . q R w.p.p.p.w.9.9.9.9.      ",
"    . K a.p.p.p.p.p.a./ . @ % + >.a.p.p.p.p.p.p.p.p.y.y.y.J K y.y.y.p.p.p.p.p.p.p.p.a.>.+ % @ . / a.p.p.y.9.9.9.<.0     ",
"  . . ..a.p.p.p.p.p.p.w./ 4.E . p y.p.p.p.p.p.p.p.p.p.p.w.2 2 w.p.p.p.p.p.p.p.p.p.p.y.p . E 4./ w.p.p.p.y.9.9.9./ . .   ",
"    r w.p.p.p.p.p.p.p.p.a.a.9.= o o.a.p.p.p.p.p.p.p.p.p.w.2 2 w.p.p.p.p.p.p.p.p.p.a.o.o = 9.a.a.p.p.p.p.p.0.9.9.<.- .   ",
"    t.p.p.p.p.p.p.p.a.p.p.a.1.@ . e t.p.p.p.p.p.p.p.p.p.w.; ; w.p.p.p.p.p.p.p.p.p.t.e . @ 1.a.p.p.a.p.p.p.w.9.9.5.q .   ",
"    p.p.p.p.p.p.p.q./ w.p.a.E . + . G t.a.a.a.a.a.a.a.a./ . . / a.a.a.a.a.a.a.a.t.G . + . E a.p.w./ q.p.p.t.9.9.9.Z .   ",
"  8 5.a.p.p.p.p.a.E . E a.y.r + R 9 . w Y E E E E E E G = o o = G E E E E E E Y w . 9 R + r y.a.E . E a.p.y.9.9.9.L .   ",
". . | a.p.p.p.p.a.| . p y./ . e y.5.k + . . . . . . . . ; E E ; . . . . . . . . + k 5.y.e . / y.p . | a.p.y.9.9.9.E . . ",
". + 1.a.p.p.p.p.p.t.r . A ; + ..a.a.w.w . k R T T T T W 6.p.p.6.E T T T T R k . w w.a.a...+ ; A . r t.p.p.p.9.9.9.o.+ . ",
". = 6.p.p.p.p.p.p.a.4.> . o I p.p.a./ . w w.a.a.a.a.a.a.p.a.a.p.a.a.a.a.a.a.w.w . / a.p.p.I o . > 4.a.p.p.p.0.9.9.>.= . ",
". ; q.p.p.p.p.p.p.p.a./ . 8 w.p.p.t.w + X.a.p.p.p.p.p.p.p./ / p.p.p.p.p.p.p.a.X.+ w t.a.p.w.8 . / a.p.p.p.p.0.9.9.<.- . ",
". 8 t.p.p.p.p.p.p.p.p.y.p . o.a.a.X.. p y.w.y.p.p.p.p.p.t.8 8 t.p.p.p.p.p.y.w.y.p . X.a.a.o.. p y.p.p.p.p.p.w.9.9.2.2 . ",
". 0 t.p.p.p.p.p.p.p.p.a.o.. V p.a.K . E 9.9 K p.p.p.p.p.w.2 2 w.p.p.p.p.p.K 9 9.E . K a.p.V . o.a.p.p.p.p.p.w.9.9.5.8 . ",
". w y.p.p.p.p.p.p.p.p.p.w.2 > w.p.r + 5.w.8 o E y.y.y.y...@ @ ..y.y.y.y.E o 8 w.5.+ r p.w.> 2 w.p.p.p.p.p.p.w.9.9.5.9 . ",
". q y.p.p.p.p.p.p.p.p.p.p.r + 1.y.9 - 0.a.| + + q e w w = . . = w w e q + + | a.0.- 9 y.1.+ r p.p.p.p.p.p.p.w.9.9.5.9 . ",
". =                       ; .     + o         . . . . . .     . . . . . .         o +     . ;                       % . "
};
